<svg width="13" height="11" viewBox="0 0 13 11" fill="none" xmlns="http://www.w3.org/2000/svg">
<path d="M6.36842 2.31579C7.96632 2.31579 9.26316 3.61263 9.26316 5.21053C9.26316 5.58684 9.1879 5.94 9.05474 6.27L10.7453 7.96053C11.6195 7.23105 12.3084 6.28737 12.7311 5.21053C11.7295 2.66895 9.25737 0.868421 6.36263 0.868421C5.55211 0.868421 4.77632 1.01316 4.05842 1.27368L5.30895 2.52421C5.63895 2.39105 5.99211 2.31579 6.36842 2.31579ZM0.578948 0.735263L1.89895 2.05526L2.16526 2.32158C1.20421 3.06842 0.451579 4.06421 0 5.21053C1.00158 7.75211 3.47369 9.55263 6.36842 9.55263C7.26579 9.55263 8.12263 9.37895 8.90421 9.06632L9.14737 9.30947L10.8437 11L11.5789 10.2647L1.31421 0L0.578948 0.735263ZM3.78053 3.93684L4.6779 4.83421C4.64895 4.95579 4.63158 5.08316 4.63158 5.21053C4.63158 6.17158 5.40737 6.94737 6.36842 6.94737C6.49579 6.94737 6.62316 6.93 6.74474 6.90105L7.64211 7.79842C7.25421 7.98947 6.82579 8.10526 6.36842 8.10526C4.77053 8.10526 3.47369 6.80842 3.47369 5.21053C3.47369 4.75316 3.58947 4.32474 3.78053 3.93684ZM6.27579 3.48526L8.09948 5.30895L8.11105 5.21632C8.11105 4.25526 7.33526 3.47947 6.37421 3.47947L6.27579 3.48526Z" fill="#A7A7A7"/>
</svg>
