<svg width="248" height="131" viewBox="0 0 248 131" fill="none" xmlns="http://www.w3.org/2000/svg">
<path d="M75.138 0H76.7827C77.1812 0.14941 77.6027 0.242905 77.9775 0.450979C78.7893 0.885458 79.4847 1.55734 79.8998 2.38322C80.4871 3.58125 80.5595 4.96901 80.3936 6.27337C85.9626 6.27795 91.5326 6.27337 97.1016 6.2752C97.1025 6.55752 97.1034 6.83893 97.1034 7.12125C96.0231 7.12216 94.9429 7.12858 93.8626 7.11941C93.8479 11.4074 93.8589 15.6944 93.858 19.9815C93.8278 20.3995 93.9854 20.9128 94.4426 21.0209C94.8723 21.0833 95.3103 21.0393 95.7446 21.0484C95.7565 21.3252 95.7593 21.603 95.7547 21.8807C93.8864 21.8807 92.0182 21.8752 90.1508 21.8844C90.138 21.603 90.1453 21.3207 90.1756 21.0411C90.5943 21.0402 91.0176 21.0833 91.4345 21.0182C91.8074 20.9513 91.9861 20.5608 92.042 20.2235C92.1318 19.6093 92.0832 18.9878 92.0732 18.371C91.035 19.2638 89.7706 19.9063 88.4255 20.1767C87.4479 20.3848 86.3924 20.1886 85.5604 19.6341C84.4985 18.975 83.8039 17.9007 83.2395 16.8145C82.8107 15.9722 82.2454 15.1554 81.407 14.6779C81.5115 14.3635 81.6388 14.0555 81.7928 13.7613C83.0783 14.9135 85.1069 14.94 86.5591 14.0894C87.2546 13.6788 87.5359 12.8511 87.6348 12.0912C87.7356 11.1067 87.7814 10.0829 87.4607 9.1314C87.2124 8.44393 86.7781 7.78305 86.1212 7.42923C85.6758 7.18358 85.16 7.11575 84.6588 7.12216C83.202 7.12583 81.7451 7.11941 80.2892 7.12766C80.2818 11.4459 80.2855 15.7641 80.2883 20.0823C80.2644 20.4865 80.4733 20.9503 80.9086 21.0283C81.3264 21.0787 81.7488 21.0429 82.1684 21.0493C82.1703 21.3271 82.1703 21.6039 82.1703 21.8816C80.3038 21.8715 78.4374 21.8917 76.571 21.8734C76.5719 21.5984 76.5738 21.3243 76.5765 21.0503C77.0365 21.0292 77.5129 21.1144 77.9619 20.987C78.4173 20.7899 78.5006 20.2308 78.5071 19.789C78.5098 15.5679 78.5171 11.346 78.508 7.124C76.9302 7.12216 75.3524 7.12766 73.7746 7.12033C73.7215 8.59518 73.7645 10.0719 73.7508 11.5476C73.7544 14.3589 73.7434 17.1702 73.7554 19.9815C73.7416 20.3848 73.8607 20.8834 74.2996 21.0136C74.7394 21.1062 75.1948 21.0356 75.6419 21.0567C75.6465 21.3335 75.6493 21.6094 75.6493 21.8862C73.7819 21.8871 71.9146 21.8926 70.0463 21.8835C70.0482 21.6076 70.0518 21.3326 70.0573 21.0576C70.477 21.0438 70.9003 21.0915 71.3163 21.0283C71.746 20.9522 71.9201 20.4838 71.9613 20.1015C72.0099 19.4837 71.9742 18.8632 71.9861 18.2436C71.9687 17.0611 72.063 15.8585 71.7808 14.6971C71.6608 14.1252 71.3493 13.599 70.9223 13.204C69.9959 12.3634 68.4081 12.1407 67.4231 13.0014C66.5517 13.7503 66.2695 14.9437 66.1944 16.0437C66.1413 17.1702 66.133 18.3233 66.4427 19.4177C66.6278 20.1529 67.0768 20.8083 67.6934 21.2482C67.4249 21.4655 67.151 21.6754 66.877 21.8844C66.3254 21.5901 65.8178 21.2061 65.4202 20.7212C64.5699 19.7386 64.196 18.4205 64.1896 17.1372C64.1576 15.8173 64.492 14.4451 65.3478 13.412C66.1852 12.335 67.5257 11.6677 68.8964 11.6989C70.0262 11.6659 71.1266 12.1058 71.9842 12.8291C71.9851 11.5183 71.987 10.2075 71.9851 8.89674C71.9796 8.35044 71.8889 7.73172 71.4446 7.35957C71.2036 7.14141 70.8591 7.12033 70.5503 7.12125C67.4268 7.12858 64.3033 7.11575 61.1788 7.1295C62.2252 7.88204 62.8162 9.11215 63.0187 10.3597C63.2743 11.9922 63.1011 13.8034 62.0456 15.1389C61.1834 16.2948 59.7687 16.9474 58.343 17.0024C58.5345 17.6331 58.9166 18.1776 59.2327 18.7495C59.7449 19.5598 60.4385 20.35 61.3804 20.6451C62.2362 20.9036 63.1231 20.5039 63.7645 19.9439C63.8946 20.1254 64.0229 20.3096 64.1457 20.4984C63.8744 20.7643 63.5996 21.0301 63.278 21.2345C62.4249 21.8065 61.3108 21.976 60.3285 21.6754C59.5103 21.4398 58.8387 20.8743 58.267 20.2638C57.5688 19.4755 57.1904 18.4764 56.614 17.6074C56.1971 17.0373 55.7161 16.5075 55.1471 16.0858C55.2057 15.7228 55.3413 15.3809 55.5072 15.0555C56.3969 15.9566 57.7914 16.2691 59.0045 15.9657C59.7247 15.7998 60.5081 15.4863 60.8545 14.7815C61.4088 13.6733 61.3877 12.3918 61.3557 11.1837C61.2851 10.059 61.0899 8.83533 60.2855 7.9847C59.7788 7.41915 59.021 7.12308 58.2688 7.12583C56.8211 7.12033 55.3734 7.12583 53.9257 7.12583C53.9239 11.411 53.9239 15.6963 53.9248 19.9815C53.9056 20.3738 54.0274 20.8523 54.4379 20.9998C54.8851 21.1043 55.3514 21.0365 55.8068 21.0438C55.8169 21.3188 55.8233 21.5947 55.8306 21.8697C53.9624 21.8945 52.0932 21.8715 50.225 21.8835C50.2231 21.6048 50.2241 21.3262 50.2296 21.0475C50.6749 21.0356 51.1302 21.0979 51.5691 20.9998C52.0813 20.8092 52.1418 20.174 52.1555 19.7047C52.1583 16.1289 52.1546 12.5532 52.1574 8.97832C52.1482 8.53101 52.1079 8.06353 51.8788 7.66847C51.6992 7.33574 51.3281 7.11758 50.9497 7.12491C49.8612 7.11666 48.7727 7.13774 47.6842 7.11575C47.6585 11.4037 47.6796 15.6926 47.6741 19.9815C47.6494 20.3811 47.7831 20.8633 48.2046 21.0026C48.6463 21.0979 49.1053 21.0328 49.5543 21.0448C49.5726 21.3225 49.579 21.6011 49.5653 21.8789C47.6943 21.8734 45.8233 21.8945 43.9532 21.8679C43.955 21.5911 43.9651 21.3142 43.9944 21.0402C44.4141 21.042 44.8383 21.0833 45.2552 21.0182C45.5869 20.9494 45.7793 20.6194 45.8425 20.3096C45.9204 19.899 45.8938 19.4782 45.8984 19.063C45.8902 17.7247 45.9048 16.3865 45.8984 15.0482C44.8841 15.0629 43.8698 15.0445 42.8555 15.0574C42.8555 15.7824 42.8564 16.5066 42.8574 17.2316C42.8555 17.9062 42.8253 18.5955 42.5981 19.2381C42.3552 19.9246 41.7056 20.4077 41.0093 20.5617C40.192 20.7459 39.3105 20.7863 38.5152 20.4874C37.5321 20.1235 36.6946 19.2876 36.4683 18.2463C36.3474 17.6532 36.3529 17.029 36.5022 16.4415C36.7972 15.3122 37.8143 14.4451 38.9504 14.2407C39.7476 14.1096 40.5594 14.2177 41.3629 14.1719C41.2988 13.6045 41.286 13.0335 41.253 12.4642C40.5493 12.665 39.8099 12.7722 39.0805 12.6806C38.1166 12.544 37.2187 11.9473 36.7523 11.0884C36.176 9.95911 36.2347 8.45585 37.051 7.45398C37.7245 6.6281 38.7965 6.15329 39.8612 6.19454C40.6721 6.21562 41.5636 6.35495 42.1537 6.96542C42.7144 7.50806 42.8271 8.33119 42.839 9.07457C42.8583 10.774 42.85 12.4743 42.8528 14.1747C43.8662 14.1976 44.8804 14.1783 45.8938 14.1912C45.9012 12.4862 45.8947 10.7804 45.8975 9.07549C45.9057 8.48518 45.8599 7.8133 45.3981 7.38523C44.9492 6.98559 44.3041 7.12033 43.7553 7.09833C43.758 6.82609 43.7608 6.55294 43.7626 6.2807C52.9857 6.2587 62.2096 6.28162 71.4326 6.27429C71.298 5.07718 71.3346 3.82507 71.7781 2.69029C72.3352 1.29336 73.6555 0.243822 75.138 0ZM74.3995 1.26127C73.7095 1.86899 73.3953 2.78195 73.2761 3.67016C73.1689 4.53454 73.1341 5.41449 73.245 6.27979C75.0198 6.2697 76.7937 6.27704 78.5684 6.27612C78.6811 5.07534 78.6747 3.83607 78.3357 2.67104C78.1012 1.87724 77.5422 1.13295 76.7451 0.847876C75.9635 0.566473 75.0189 0.683801 74.3995 1.26127ZM39.1768 6.76468C38.7901 6.86917 38.4602 7.15058 38.288 7.51173C38.0818 7.94162 38.0159 8.42285 37.9884 8.89491C37.9581 9.67679 37.9737 10.4798 38.2358 11.2268C38.4043 11.6549 38.7571 12.0389 39.2152 12.1517C39.6101 12.2241 40.0573 12.17 40.3679 11.895C41.0587 11.3689 41.2539 10.4477 41.2805 9.62546C41.3098 8.74917 41.1696 7.77113 40.5182 7.12766C40.1791 6.7711 39.6477 6.64827 39.1768 6.76468ZM88.4833 7.92146C89.1897 8.91141 89.4563 10.169 89.3775 11.3707C89.2923 12.4762 88.7361 13.5184 87.9115 14.2507C87.0246 15.0931 85.7959 15.4515 84.6011 15.5313C84.9804 16.4406 85.3432 17.4213 86.1157 18.0776C86.7415 18.5754 87.5084 18.9778 88.3284 18.9503C89.668 18.9576 90.9342 18.3279 91.9476 17.4892C92.1345 17.3783 92.0622 17.1363 92.0915 16.9566C92.0942 14.3598 92.0915 11.763 92.0924 9.16623C92.0814 8.68409 92.0842 8.17536 91.8514 7.73813C91.6819 7.3724 91.2934 7.11116 90.8866 7.124C89.8182 7.12308 88.7508 7.11575 87.6834 7.13408C87.9418 7.4054 88.2698 7.60614 88.4833 7.92146ZM39.0677 14.7943C38.4575 15.0308 38.1634 15.6953 38.0699 16.3031C37.9499 17.2059 37.916 18.1446 38.1551 19.0318C38.2623 19.4645 38.5537 19.8559 38.9559 20.0548C39.5002 20.3206 40.1965 20.1575 40.5905 19.7056C41.1724 19.0694 41.3089 18.1601 41.2851 17.3288C41.2667 16.524 41.0972 15.6358 40.4623 15.0803C40.1013 14.7292 39.5368 14.6073 39.0677 14.7943Z" fill="#C9252C"/>
<path d="M101.272 6.27708C112.097 6.2725 122.924 6.27708 133.75 6.27525C133.752 6.55665 133.752 6.83897 133.751 7.12129C131.447 7.12404 129.143 7.12587 126.839 7.12037C126.821 8.27257 126.83 9.42568 126.835 10.5779C128.367 9.41651 130.723 9.46968 132.15 10.7841C133.31 11.7777 133.819 13.3543 133.748 14.8512C133.752 16.2518 133.212 17.6844 132.125 18.5992C131.009 19.6268 129.311 19.8513 127.912 19.3316C128.05 19.1015 128.192 18.8724 128.334 18.6441C128.907 18.9375 129.601 18.9833 130.202 18.745C130.849 18.47 131.322 17.8788 131.558 17.2261C131.914 16.2637 131.942 15.2215 131.919 14.2068C131.898 13.4047 131.781 12.5899 131.448 11.8538C131.098 11.1251 130.399 10.5009 129.56 10.466C128.9 10.4074 128.21 10.6393 127.756 11.1306C127.087 11.8217 126.89 12.8245 126.835 13.7512C126.826 15.8585 126.829 17.9649 126.833 20.0713C126.804 20.4783 127.025 20.9385 127.457 21.0219C127.873 21.0613 128.293 21.0283 128.712 21.0338C128.715 21.3124 128.713 21.5911 128.708 21.8697C126.845 21.8633 124.982 21.8725 123.118 21.8642C123.116 21.5902 123.115 21.3152 123.117 21.0411C123.552 21.02 123.997 21.0805 124.428 20.9953C124.763 20.9119 124.944 20.5691 125.002 20.2528C125.097 19.7377 125.028 19.2106 125.058 18.6909C124.182 19.3041 123.117 19.6744 122.04 19.5791C120.558 19.5159 119.241 18.5067 118.59 17.2069C118.055 16.1418 117.962 14.9098 118.104 13.7421C118.274 12.424 118.985 11.1645 120.104 10.4266C121.578 9.43668 123.667 9.54942 125.058 10.642C125.031 9.87941 125.088 9.11403 125.018 8.35415C124.953 7.79501 124.596 7.14329 123.967 7.12496C121.448 7.12312 118.929 7.12037 116.411 7.12679C116.414 11.4413 116.408 15.755 116.414 20.0695C116.398 20.4618 116.578 20.9366 117.004 21.0264C117.435 21.0814 117.871 21.0365 118.304 21.0521C118.306 21.3289 118.306 21.6067 118.298 21.8844C116.434 21.8743 114.57 21.8789 112.707 21.8826C112.702 21.6048 112.703 21.328 112.717 21.0512C113.238 20.9916 113.852 21.2034 114.3 20.8505C114.717 20.3976 114.635 19.7258 114.647 19.1575C114.647 15.1472 114.652 11.137 114.651 7.12587C113.529 7.11854 112.407 7.12312 111.285 7.12587C111.279 9.04253 111.286 10.9592 111.281 12.8768C110.695 12.8813 110.109 12.8804 109.525 12.8795C109.477 12.2342 109.646 11.5229 109.272 10.9464C108.872 10.2048 108.012 9.84916 107.202 9.83724C106.533 9.79233 105.823 9.93624 105.309 10.389C104.602 11.0041 104.46 12.1251 104.906 12.9327C105.153 13.4231 105.65 13.765 106.19 13.8484C107.638 14.0473 109.12 13.8878 110.56 14.1582C111.324 14.3369 111.988 14.8512 112.412 15.5047C113.043 16.5112 113.069 17.821 112.629 18.9063C111.894 20.6332 110.08 21.8083 108.218 21.8789C106.65 22.0457 105.047 21.5196 103.846 20.5076C101.951 19.0154 100.921 16.6835 100.549 14.3461C100.797 14.3342 101.045 14.3232 101.294 14.3131C101.479 15.6468 101.944 16.9502 102.732 18.0483C103.514 19.1501 104.593 20.0979 105.915 20.4691C107.02 20.7615 108.26 20.7863 109.293 20.2382C110.073 19.8623 110.663 19.1465 110.948 18.3334C111.169 17.656 111.118 16.9154 110.936 16.2362C110.707 15.4855 109.972 15.0088 109.219 14.9199C107.909 14.7494 106.563 15.007 105.27 14.6807C104.566 14.5019 103.852 14.1994 103.373 13.633C102.802 12.9675 102.714 11.9675 103.059 11.1764C103.389 10.423 104.135 9.95824 104.876 9.67408C106.378 9.16078 108.082 9.23411 109.517 9.92616C109.496 9.23411 109.598 8.50814 109.338 7.84909C109.177 7.42928 108.769 7.10113 108.307 7.12312C105.96 7.12037 103.613 7.12771 101.266 7.12037C101.265 6.83897 101.267 6.55849 101.272 6.27708ZM121.624 10.5999C120.893 10.8914 120.397 11.5871 120.165 12.3176C119.834 13.3717 119.84 14.4955 119.902 15.5881C119.987 16.5148 120.179 17.5066 120.841 18.2078C121.55 19.0145 122.888 19.1135 123.726 18.4526C124.384 17.9558 124.705 17.1427 124.852 16.3535C125.048 15.2187 125.045 14.0528 124.867 12.9162C124.734 12.1132 124.378 11.2938 123.682 10.8263C123.088 10.4239 122.291 10.3551 121.624 10.5999Z" fill="#C9252C"/>
<path d="M36.3809 27.7544C76.0823 27.7517 115.784 27.7544 155.486 27.7535C160.547 27.7609 165.61 27.7379 170.67 27.7645L170.786 27.7865C166.913 30.5318 163.053 33.2982 159.209 36.0829C153.493 40.2379 147.759 44.3682 142.018 48.4866C139.136 50.527 136.248 52.5573 133.341 54.5611C131.984 55.4612 130.635 56.3742 129.28 57.278C123.189 61.2818 116.924 65.0711 110.258 68.0455C106.682 69.6285 102.941 70.9366 99.0464 71.4251C96.8474 71.6781 94.5769 71.7689 92.4274 71.1483C90.8102 70.6872 89.3167 69.8439 88.0293 68.7697C86.8171 67.7834 85.8303 66.5652 84.7711 65.4258C82.3128 62.6365 79.8554 59.8427 77.2487 57.19C72.7278 52.6618 67.6234 48.7185 62.1048 45.4838C61.8537 45.3353 61.5999 45.1483 61.2948 45.1529C57.4648 45.0291 53.6349 45.2207 49.8141 45.4664C50.417 45.6973 51.0547 45.8202 51.6649 46.031C54.9653 47.1016 58.054 48.7268 61.0172 50.5124C63.6963 52.1504 66.2737 53.9506 68.7568 55.8709C70.7212 57.3366 72.5464 58.9783 74.3414 60.6438C76.0923 62.3185 77.7865 64.0582 79.3157 65.94C81.3791 68.4608 83.4316 71.0915 86.1959 72.889C87.8882 74.0384 89.8279 74.7992 91.8254 75.219C93.657 75.6352 95.5491 75.6352 97.4164 75.5481C99.6805 75.3813 101.919 74.9257 104.089 74.2602C107.319 73.2685 110.429 71.9183 113.455 70.4187C119.722 67.2417 125.637 63.4193 131.376 59.3779C140.25 53.1962 148.872 46.6653 157.479 40.1188C162.952 35.9958 168.362 31.7885 173.904 27.7572C177.452 27.748 181.001 27.7544 184.551 27.7554L184.452 27.8424C182.699 28.991 180.972 30.1798 179.25 31.376C167.655 39.3626 156.386 47.8092 144.911 55.9663C142.135 57.97 139.31 59.9041 136.493 61.8482C130.706 65.8053 124.798 69.602 118.619 72.9229C115.317 74.7149 111.913 76.3309 108.391 77.6435C104.512 79.078 100.448 80.1395 96.2995 80.3017C92.7068 80.4575 89.0656 79.7838 85.8147 78.2338C82.6234 76.6545 80.0927 74.0375 77.9377 71.2537C76.8849 69.9484 75.954 68.5488 74.8435 67.2902C73.1658 65.3424 71.3681 63.4963 69.4632 61.7694C64.7005 57.409 59.2635 53.8452 53.5817 50.8038C50.0963 48.9596 46.4945 47.3188 42.7598 46.0447C42.3787 45.9237 41.9774 46.0392 41.5889 46.0438C40.0404 46.1712 38.4846 46.2491 36.9444 46.46C36.7474 46.4856 36.5495 46.4957 36.3525 46.5086C36.3781 41.1802 36.3561 35.8519 36.3635 30.5245C36.3735 29.6014 36.3424 28.6766 36.3809 27.7544Z" fill="#C9252C"/>
<path d="M178.336 34.7749C181.335 32.5777 184.34 30.3851 187.401 28.2751C187.402 30.4631 187.403 32.6501 187.401 34.8381C187.33 34.8977 187.255 34.9536 187.184 35.0077C175.386 42.9594 164.077 51.6004 152.546 59.9279C149.688 62.0343 146.771 64.0591 143.877 66.1142C138.416 69.9649 132.884 73.7203 127.164 77.176C124.027 79.0615 120.85 80.881 117.58 82.5245C114.099 84.2643 110.544 85.8839 106.828 87.0618C102.712 88.3735 98.4334 89.3112 94.0977 89.3396C90.4492 89.4239 86.786 88.7869 83.3848 87.4633C80.0964 86.1507 77.0727 84.1854 74.5173 81.7362C73.2932 80.5675 72.2615 79.2201 71.2096 77.8992C70.2448 76.6655 69.3551 75.3703 68.3106 74.1997C64.8132 70.0447 60.6699 66.4561 56.1775 63.4157C50.3281 59.4485 43.8053 56.5905 37.1441 54.2907C36.8757 54.2045 36.599 54.1312 36.358 53.9809C36.3681 52.6655 36.3635 51.3502 36.3589 50.0348C39.2176 50.8194 42.0159 51.8195 44.7747 52.9029C48.5167 54.3897 52.1634 56.1129 55.7029 58.0333C62.463 61.7694 68.5726 66.721 73.4801 72.6983C74.5026 73.9898 75.5298 75.2786 76.5908 76.539C78.7073 78.9048 81.2417 80.9158 84.0913 82.3265C85.856 83.1515 87.7086 83.8041 89.6209 84.1928C91.9656 84.6804 94.3744 84.8225 96.764 84.6767C99.0501 84.5475 101.307 84.1139 103.525 83.5603C107.249 82.607 110.838 81.1853 114.297 79.5207C120.856 76.3666 127.011 72.4499 133.02 68.3618C138.586 64.4194 144.112 60.4201 149.567 56.3237L149.679 56.5089C149.667 56.4411 149.653 56.3732 149.641 56.3072C150.805 55.3833 152.021 54.5263 153.195 53.6179C158.916 49.3207 164.62 45.0025 170.348 40.7155C173.014 38.7402 175.654 36.7282 178.336 34.7749Z" fill="#C9252C"/>
<path d="M171.023 50.8323C176.426 46.746 181.89 42.7394 187.406 38.8081C187.398 63.8401 187.403 88.873 187.404 113.906C137.06 113.909 86.7172 113.905 36.3735 113.908C36.3451 96.261 36.3818 78.6142 36.3552 60.9683C36.8967 61.0453 37.3998 61.2726 37.9229 61.4229C44.0903 63.533 50.0313 66.3672 55.4161 70.0548C57.3796 71.4187 59.2598 72.9064 61.0172 74.5279C62.4694 75.791 63.8081 77.1797 65.0817 78.6215C65.921 79.5024 66.6118 80.5079 67.3906 81.4401C68.251 82.4723 69.0646 83.5447 69.9873 84.5246C72.3403 87.048 75.0753 89.2287 78.1053 90.8859C81.2747 92.6156 84.7555 93.7605 88.3243 94.2939C90.6241 94.6734 92.9661 94.7156 95.2906 94.601C97.5465 94.4791 99.7922 94.1803 102.003 93.711C105.502 92.9685 108.889 91.7769 112.196 90.4285C117.438 88.1764 122.486 85.4843 127.325 82.4658C130.387 80.584 133.366 78.5729 136.335 76.55C139.185 74.615 141.973 72.5911 144.759 70.5672C147.392 68.6221 150.04 66.6981 152.652 64.7246C158.797 60.1232 164.896 55.4594 171.023 50.8323Z" fill="#C9252C"/>
<path d="M141.879 119.767C142.789 119.74 143.698 119.667 144.61 119.656C144.603 122.822 144.607 125.988 144.607 129.155C144.607 129.486 144.632 129.886 144.932 130.095C145.225 130.287 145.597 130.208 145.927 130.228C145.93 130.412 145.932 130.595 145.935 130.781C145.143 130.787 144.352 130.782 143.562 130.786C143.482 130.32 143.445 129.85 143.366 129.385C143.013 129.994 142.513 130.567 141.821 130.783C141.159 130.978 140.405 130.91 139.815 130.542C139.107 130.106 138.601 129.37 138.4 128.567C138.189 127.774 138.183 126.929 138.364 126.128C138.568 125.257 139.109 124.455 139.876 123.986C140.643 123.516 141.682 123.449 142.453 123.949C142.848 124.185 143.126 124.562 143.379 124.938C143.362 123.621 143.381 122.304 143.37 120.989C143.378 120.728 143.182 120.498 142.944 120.42C142.602 120.298 142.234 120.325 141.879 120.321C141.878 120.135 141.878 119.95 141.879 119.767ZM140.93 124.302C140.439 124.47 140.064 124.9 139.92 125.394C139.678 126.191 139.669 127.039 139.727 127.863C139.794 128.531 139.876 129.278 140.391 129.766C140.821 130.254 141.596 130.347 142.153 130.033C142.656 129.74 143.017 129.23 143.188 128.679C143.389 128.001 143.402 127.282 143.356 126.582C143.281 125.807 142.99 124.995 142.347 124.516C141.95 124.202 141.401 124.165 140.93 124.302Z" fill="#C9252C"/>
<path d="M148.017 119.664C148.594 119.531 149.177 120.155 148.979 120.721C148.863 121.147 148.373 121.414 147.952 121.289C147.598 121.18 147.304 120.826 147.347 120.444C147.354 120.074 147.657 119.734 148.017 119.664Z" fill="#C9252C"/>
<path d="M124.374 120.322C124.373 120.135 124.374 119.95 124.376 119.766C126.066 119.771 127.755 119.767 129.445 119.769C129.443 119.952 129.445 120.137 129.447 120.323C128.954 120.332 128.449 120.28 127.969 120.41C127.691 120.504 127.716 120.852 127.692 121.089C127.69 123.867 127.688 126.646 127.693 129.424C127.714 129.687 127.681 130.072 128.003 130.164C128.473 130.288 128.969 130.197 129.451 130.235C129.447 130.417 129.445 130.601 129.447 130.787C127.755 130.779 126.062 130.789 124.371 130.781C124.373 130.594 124.376 130.41 124.382 130.226C124.856 130.215 125.339 130.264 125.808 130.171C126.147 130.109 126.112 129.694 126.134 129.431C126.138 126.65 126.139 123.869 126.133 121.088C126.12 120.859 126.144 120.526 125.88 120.431C125.396 120.259 124.875 120.343 124.374 120.322Z" fill="#C9252C"/>
<path d="M160.971 120.328C160.962 120.135 160.972 119.944 161.007 119.757C162.894 119.787 164.781 119.754 166.669 119.772C167.446 119.816 168.256 119.945 168.915 120.388C169.561 120.811 170.031 121.503 170.139 122.273C170.266 123.123 170.106 124.093 169.451 124.7C168.667 125.4 167.622 125.777 166.577 125.807C165.817 125.829 165.056 125.809 164.297 125.819C164.304 127.116 164.276 128.414 164.31 129.71C164.295 130 164.57 130.195 164.836 130.216C165.305 130.24 165.777 130.223 166.248 130.226C166.25 130.411 166.252 130.596 166.256 130.783C164.495 130.787 162.735 130.782 160.974 130.785C160.961 130.596 160.969 130.408 160.997 130.224C161.439 130.219 161.883 130.25 162.325 130.205C162.561 130.179 162.721 129.937 162.705 129.709C162.706 126.803 162.708 123.896 162.704 120.991C162.722 120.756 162.631 120.486 162.387 120.411C161.927 120.278 161.442 120.333 160.971 120.328ZM164.395 120.544C164.251 120.757 164.311 121.027 164.297 121.269C164.296 122.604 164.293 123.939 164.298 125.275C165.03 125.262 165.765 125.306 166.497 125.229C167.115 125.158 167.778 124.913 168.109 124.35C168.489 123.669 168.499 122.852 168.429 122.096C168.369 121.454 168.01 120.815 167.41 120.54C166.714 120.234 165.936 120.268 165.193 120.275C164.915 120.294 164.574 120.297 164.395 120.544Z" fill="#C9252C"/>
<path d="M184.129 120.916C184.284 120.895 184.439 120.877 184.6 120.863C184.704 121.811 184.62 122.774 184.645 123.729C185.396 123.737 186.148 123.724 186.9 123.737C186.895 123.966 186.892 124.195 186.888 124.426C186.142 124.418 185.397 124.426 184.652 124.422C184.641 125.939 184.646 127.456 184.65 128.972C184.642 129.386 184.828 129.849 185.234 130.017C185.648 130.212 186.165 130.039 186.434 129.683C186.793 129.235 186.86 128.638 186.894 128.084C187.065 128.084 187.236 128.085 187.41 128.091C187.335 128.812 187.262 129.612 186.742 130.171C186.048 130.974 184.681 131.047 183.891 130.349C183.49 129.977 183.378 129.405 183.398 128.881C183.398 127.394 183.402 125.908 183.396 124.422C182.993 124.423 182.591 124.422 182.189 124.423C182.187 124.249 182.187 124.078 182.187 123.906C182.662 123.801 183.139 123.597 183.445 123.201C183.948 122.554 184.094 121.715 184.129 120.916Z" fill="#C9252C"/>
<path d="M172.014 123.602C172.881 123.421 173.835 123.567 174.564 124.089C175.36 124.632 175.871 125.537 175.997 126.487C176.177 127.733 175.931 129.152 174.962 130.033C174.243 130.695 173.225 131.03 172.253 130.894C171.471 130.808 170.758 130.36 170.272 129.752C169.726 129.105 169.488 128.249 169.459 127.416C169.424 126.624 169.577 125.812 169.98 125.123C170.427 124.38 171.157 123.786 172.014 123.602ZM172.481 124.078C171.826 124.165 171.331 124.719 171.104 125.309C170.812 126.127 170.806 127.015 170.852 127.874C170.911 128.617 171.07 129.424 171.64 129.955C172.257 130.591 173.405 130.523 173.966 129.844C174.564 129.187 174.625 128.251 174.675 127.408C174.68 126.499 174.671 125.494 174.106 124.732C173.746 124.222 173.09 123.98 172.481 124.078Z" fill="#C9252C"/>
<path d="M177.215 124.399C177.813 123.645 178.903 123.453 179.793 123.709C180.141 123.791 180.436 123.996 180.751 124.157C181.002 123.966 181.168 123.53 181.552 123.673C181.605 124.496 181.675 125.318 181.735 126.141C181.565 126.14 181.399 126.14 181.235 126.141C181.088 125.682 180.895 125.228 180.58 124.858C179.991 124.152 178.896 123.951 178.083 124.357C177.549 124.62 177.254 125.366 177.637 125.872C178.071 126.388 178.798 126.449 179.418 126.572C180.144 126.726 180.957 126.778 181.543 127.289C181.936 127.647 182.216 128.155 182.244 128.693C182.264 129.339 181.86 129.911 181.386 130.312C180.829 130.809 180.043 130.964 179.316 130.909C178.71 130.864 178.151 130.591 177.663 130.246C177.501 130.425 177.351 130.616 177.186 130.791C177.073 130.931 176.871 130.841 176.72 130.862C176.69 129.937 176.61 129.015 176.583 128.091C176.738 128.089 176.897 128.088 177.057 128.089C177.302 128.648 177.514 129.244 177.947 129.692C178.396 130.2 179.104 130.395 179.764 130.363C180.221 130.338 180.714 130.208 181.021 129.844C181.353 129.467 181.399 128.819 181.025 128.456C180.817 128.223 180.495 128.162 180.209 128.086C179.483 127.923 178.745 127.802 178.035 127.575C177.53 127.413 177.066 127.061 176.86 126.562C176.532 125.854 176.718 124.981 177.215 124.399Z" fill="#C9252C"/>
<path d="M129.895 123.806C130.669 123.774 131.442 123.703 132.216 123.675C132.317 124.175 132.359 124.683 132.433 125.188C132.838 124.525 133.454 123.954 134.229 123.777C134.952 123.609 135.805 123.642 136.391 124.149C136.935 124.643 137.153 125.407 137.163 126.124C137.185 127.287 137.157 128.452 137.177 129.616C137.175 129.818 137.242 130.063 137.45 130.147C137.749 130.262 138.079 130.212 138.394 130.229C138.397 130.413 138.399 130.596 138.403 130.781C137.176 130.786 135.95 130.789 134.723 130.78C134.725 130.594 134.728 130.41 134.734 130.227C135.096 130.198 135.537 130.298 135.821 130.008C135.972 129.857 135.934 129.622 135.95 129.429C135.943 128.418 135.956 127.407 135.941 126.397C135.93 125.829 135.806 125.201 135.348 124.819C134.812 124.387 134.004 124.427 133.437 124.78C132.798 125.192 132.46 125.962 132.435 126.706C132.408 127.612 132.429 128.52 132.421 129.426C132.419 129.682 132.437 130.002 132.691 130.143C132.996 130.254 133.331 130.218 133.652 130.229C133.651 130.413 133.652 130.598 133.655 130.784C132.424 130.783 131.192 130.787 129.961 130.782C129.964 130.596 129.968 130.413 129.975 130.23C130.383 130.212 131.056 130.321 131.177 129.788C131.203 128.325 131.18 126.861 131.188 125.397C131.192 125.1 131.189 124.76 130.955 124.542C130.684 124.244 130.249 124.314 129.89 124.281C129.891 124.122 129.891 123.962 129.895 123.806Z" fill="#C9252C"/>
<path d="M153.051 123.693C153.838 123.549 154.685 123.553 155.43 123.874C156.043 124.126 156.51 124.733 156.529 125.406C156.546 126.717 156.527 128.028 156.536 129.339C156.541 129.653 156.6 130.036 156.902 130.208C157.197 130.315 157.497 130.17 157.766 130.052C157.833 130.176 157.908 130.299 157.964 130.433C157.512 131.037 156.541 131.188 155.937 130.723C155.649 130.477 155.49 130.122 155.345 129.782C154.88 130.165 154.465 130.642 153.877 130.836C153.129 131.064 152.296 131.064 151.567 130.774C150.907 130.5 150.487 129.758 150.641 129.052C150.758 128.349 151.34 127.845 151.935 127.522C152.967 126.971 154.132 126.737 155.282 126.59C155.24 125.981 155.44 125.273 155.014 124.759C154.391 123.979 153.13 123.991 152.375 124.566C152.078 124.767 152.355 125.082 152.479 125.3C152.673 125.565 152.668 125.959 152.447 126.208C152.073 126.631 151.273 126.499 151.059 125.974C150.897 125.606 150.972 125.171 151.191 124.844C151.61 124.215 152.316 123.819 153.051 123.693ZM152.753 127.831C152.096 128.216 151.862 129.099 152.13 129.79C152.281 130.175 152.688 130.431 153.102 130.41C153.977 130.439 154.781 129.828 155.109 129.036C155.36 128.414 155.272 127.727 155.274 127.074C154.414 127.237 153.517 127.377 152.753 127.831Z" fill="#C9252C"/>
<path d="M146.253 123.803C147.173 123.786 148.094 123.763 149.013 123.723C149.027 125.766 148.993 127.812 149.03 129.855C149.188 130.415 149.918 130.174 150.348 130.227C150.347 130.411 150.348 130.595 150.348 130.781C149.03 130.787 147.711 130.782 146.393 130.786C146.39 130.601 146.388 130.416 146.388 130.233C146.789 130.182 147.271 130.342 147.611 130.067C147.818 129.815 147.744 129.455 147.764 129.153C147.755 127.837 147.764 126.522 147.76 125.206C147.761 124.957 147.681 124.686 147.462 124.545C147.11 124.299 146.652 124.378 146.249 124.361C146.248 124.173 146.249 123.987 146.253 123.803Z" fill="#C9252C"/>
<path d="M230.388 3.15865C230.582 3.17973 230.825 3.09174 230.996 3.2109C230.853 3.26223 230.694 3.26315 230.55 3.27323C230.558 3.31081 230.576 3.38597 230.585 3.42355C230.402 3.45839 230.167 3.41164 230.069 3.6078C229.924 3.63988 229.784 3.67104 229.645 3.70038L229.658 3.79112C229.507 3.81862 229.323 3.81495 229.245 3.97353C229.109 4.01203 228.932 3.99003 228.887 4.1541C228.725 4.18435 228.572 4.23385 228.453 4.34568C228.283 4.38784 228.115 4.42359 227.949 4.45567C227.932 4.65275 227.73 4.6115 227.594 4.63991C227.539 4.77557 227.382 4.77832 227.272 4.82599L227.279 4.9039C227.132 4.93048 226.988 4.96073 226.847 4.99373C226.757 5.14039 226.577 5.14039 226.433 5.17705L226.461 5.26505C226.308 5.29438 226.14 5.30263 226.038 5.43096C225.643 5.61337 225.223 5.76461 224.862 5.99926C224.759 6.03593 224.66 6.07168 224.565 6.10926C224.423 6.20459 224.26 6.25592 224.124 6.35216C223.993 6.40808 223.845 6.43283 223.748 6.54007C223.61 6.57307 223.458 6.58407 223.39 6.7234C223.127 6.81139 222.865 6.91314 222.646 7.08638C222.522 7.14138 222.36 7.14779 222.304 7.28437C222.163 7.3192 221.969 7.28529 221.926 7.46403C221.805 7.48328 221.669 7.48419 221.644 7.6336C221.496 7.66843 221.353 7.70235 221.211 7.73443L221.235 7.83434C221.092 7.87467 220.868 7.81693 220.836 8.00667C220.431 8.09833 220.113 8.38707 219.718 8.50073C219.662 8.6373 219.492 8.61806 219.384 8.66847L219.407 8.74363C219.013 8.85088 218.702 9.1442 218.3 9.23128L218.309 9.29727C218.074 9.36969 217.88 9.53009 217.643 9.58601L217.666 9.66392C217.547 9.69417 217.431 9.72717 217.319 9.76292C217.237 9.88391 217.096 9.91966 216.97 9.96641C216.738 10.1314 216.48 10.2698 216.201 10.3294L216.206 10.3881C216.099 10.4183 216.019 10.4788 215.969 10.5695C215.831 10.608 215.687 10.6346 215.592 10.7465C215.48 10.7877 215.371 10.8289 215.262 10.8684L215.281 10.9499C215.137 10.9829 214.996 11.0187 214.859 11.0572C214.808 11.1763 214.688 11.2112 214.583 11.2515C214.478 11.3459 214.35 11.3963 214.223 11.4422C213.931 11.6649 213.584 11.8107 213.26 11.9811L213.267 12.0517C213.15 12.0838 213.038 12.1177 212.929 12.1516C212.836 12.2735 212.69 12.3093 212.554 12.3469C212.532 12.4945 212.393 12.4945 212.28 12.5183C212.182 12.6228 212.047 12.6714 211.919 12.7135C211.81 12.7969 211.703 12.8794 211.597 12.961C211.487 13.0078 211.381 13.0582 211.289 13.1269C211.099 13.2351 210.902 13.3277 210.72 13.4432C210.627 13.5486 210.487 13.5807 210.366 13.6292C210.273 13.7154 210.158 13.7621 210.045 13.8043L210.047 13.8694C209.932 13.9216 209.77 13.918 209.731 14.0646C209.671 14.072 209.551 14.0875 209.491 14.0949C209.491 14.1297 209.492 14.1994 209.492 14.2351C209.343 14.2764 209.113 14.2342 209.11 14.4432C209.054 14.4478 208.943 14.4579 208.887 14.4624C208.724 14.7173 208.361 14.742 208.128 14.9189C208.096 14.9565 208.032 15.0298 208 15.0665C207.951 15.0702 207.852 15.0766 207.802 15.0802C207.764 15.2333 207.613 15.2425 207.493 15.2782C207.459 15.3149 207.392 15.3882 207.358 15.4249C207.308 15.4313 207.21 15.4441 207.162 15.4506C207.036 15.6504 206.797 15.7219 206.604 15.83C206.502 15.93 206.367 15.974 206.238 16.0152C206.201 16.1499 206.06 16.1573 205.953 16.1939C205.777 16.3644 205.569 16.4937 205.34 16.5753C205.264 16.6422 205.184 16.6999 205.099 16.7494L205.098 16.8035C204.873 16.8612 204.691 17.0052 204.496 17.1188C204.377 17.2141 204.24 17.271 204.094 17.2939C204.096 17.3287 204.1 17.3984 204.101 17.4332C204.041 17.4415 203.922 17.4589 203.862 17.4671C203.634 17.7128 203.309 17.8704 203.017 18.0354C202.816 18.1858 202.548 18.2545 202.406 18.4708C202.347 18.4763 202.229 18.4873 202.169 18.4928C202.167 18.5295 202.165 18.6019 202.164 18.6386C202.008 18.6542 201.868 18.7037 201.775 18.832C201.703 18.8861 201.633 18.9392 201.564 18.9933C201.433 19.0327 201.294 19.0584 201.206 19.1693C201.115 19.2362 201.028 19.3022 200.942 19.3682C200.845 19.4104 200.748 19.4535 200.658 19.4984C200.478 19.689 200.246 19.8366 199.981 19.8623C199.98 19.898 199.979 19.9695 199.978 20.0053C199.929 20.0062 199.83 20.0089 199.78 20.0098L199.783 20.0988C199.672 20.1538 199.511 20.1629 199.478 20.3077C199.436 20.3087 199.353 20.3114 199.31 20.3132C199.314 20.3508 199.32 20.4278 199.322 20.4654C199.191 20.4929 199.061 20.5222 198.937 20.5543C198.833 20.8027 198.513 20.7991 198.366 21.008C198.237 21.0585 198.107 21.1116 198.021 21.2207C197.908 21.2583 197.796 21.2949 197.688 21.3298C197.689 21.3664 197.691 21.4398 197.691 21.4755C197.63 21.4801 197.506 21.4902 197.445 21.4948C197.252 21.789 196.838 21.8358 196.625 22.1199C196.582 22.1337 196.498 22.1602 196.454 22.174C196.319 22.2647 196.182 22.3555 196.072 22.4737C195.829 22.5397 195.61 22.6671 195.442 22.8541C195.324 22.8816 195.197 22.899 195.178 23.0374C195.054 23.0668 194.922 23.0879 194.887 23.2309C194.849 23.2345 194.772 23.2428 194.734 23.2464C194.737 23.2831 194.741 23.3573 194.744 23.394C194.6 23.4252 194.458 23.4673 194.325 23.5178C194.242 23.5948 194.15 23.658 194.059 23.7203C193.972 23.8367 193.829 23.8688 193.704 23.9128C193.599 24.0769 193.439 24.1796 193.265 24.2511L193.293 24.3299C193.169 24.361 193.011 24.3482 192.972 24.4958C192.745 24.5618 192.607 24.7845 192.362 24.8001L192.366 24.8716C192.253 24.8927 192.176 24.9559 192.14 25.0604C192.1 25.0623 192.018 25.0668 191.977 25.0696C191.981 25.1127 191.99 25.1998 191.995 25.2438C191.888 25.2502 191.782 25.2584 191.68 25.2667C191.648 25.3043 191.584 25.3803 191.553 25.4188C191.256 25.5838 191.006 25.8313 190.676 25.9303C190.579 26.0311 190.486 26.1338 190.397 26.2392C190.347 26.2429 190.245 26.252 190.195 26.2557C190.173 26.3905 190.047 26.4235 189.942 26.4656C189.868 26.5564 189.761 26.6059 189.664 26.6572C189.606 26.725 189.544 26.7855 189.475 26.8378C189.376 26.8937 189.283 26.9523 189.191 27.0119C189.077 27.0917 188.964 27.1705 188.854 27.2521C188.702 27.3722 188.545 27.4867 188.369 27.5646C188.185 27.6966 188.012 27.8396 187.839 27.9817C187.673 28.0514 187.534 28.1595 187.401 28.275C184.34 30.3851 181.335 32.5777 178.336 34.7748C175.654 36.7281 173.014 38.7401 170.348 40.7154C164.62 45.0025 158.916 49.3207 153.195 53.6178C152.021 54.5262 150.805 55.3832 149.641 56.3072C149.653 56.3732 149.667 56.441 149.679 56.5088L149.567 56.3237C144.112 60.4201 138.586 64.4193 133.02 68.3617C127.011 72.4498 120.856 76.3665 114.297 79.5207C110.838 81.1852 107.249 82.6069 103.525 83.5602C101.307 84.1138 99.0501 84.5474 96.764 84.6766C94.3744 84.8224 91.9656 84.6803 89.6209 84.1927C87.7087 83.804 85.856 83.1514 84.0913 82.3264C81.2417 80.9157 78.7073 78.9047 76.5908 76.5389C75.5298 75.2785 74.5026 73.9897 73.4801 72.6982C68.5726 66.7209 62.463 61.7693 55.7029 58.0332C52.1634 56.1129 48.5167 54.3896 44.7747 52.9028C42.0159 51.8194 39.2176 50.8194 36.3589 50.0347C36.3223 50.0274 36.249 50.0118 36.2123 50.0045L36.2343 49.9174C35.9301 49.8972 35.6296 49.845 35.329 49.8047L35.34 49.7102C35.1128 49.6644 34.8608 49.6818 34.6638 49.5453C34.3862 49.4802 34.1031 49.4545 33.8209 49.427C33.7338 49.2272 33.5011 49.3014 33.3307 49.2739C33.1035 49.0374 32.6976 49.1383 32.3952 49.0723L32.4099 48.976C32.2165 48.9485 32.0223 48.9238 31.8271 48.9155C31.8253 48.888 31.8216 48.8321 31.8198 48.8046C31.5962 48.7625 31.2746 48.8899 31.1399 48.6497C30.6873 48.6259 30.2392 48.548 29.7875 48.5177C29.5319 48.2528 29.082 48.4801 28.7934 48.2592C28.4745 48.2152 28.1538 48.1923 27.835 48.1502C27.4941 47.9842 27.0992 48.0273 26.7382 47.9357C27.0571 47.8688 27.3787 47.8128 27.7049 47.7908L27.7104 47.7028C28.0247 47.6836 28.338 47.6478 28.6523 47.6304L28.6303 47.5314C29.1196 47.5388 29.6006 47.4315 30.089 47.4279V47.3334C30.4619 47.3353 30.8284 47.2592 31.2004 47.2473L31.1848 47.1483C31.6145 47.1565 32.0388 47.0685 32.4685 47.0594L32.4731 46.9659C32.8735 46.9576 33.2702 46.888 33.6715 46.8834L33.6679 46.7899C34.0426 46.8046 34.41 46.7111 34.7848 46.7184L34.7683 46.6139C35.3345 46.6405 35.8944 46.5268 36.4597 46.5286C36.6237 46.5277 36.785 46.4947 36.9444 46.4599C38.4846 46.2491 40.0404 46.1712 41.5889 46.0438C41.9774 46.0392 42.3787 45.9237 42.7599 46.0447C46.4945 47.3188 50.0963 48.9595 53.5818 50.8038C59.2635 53.8451 64.7005 57.409 69.4632 61.7693C71.3681 63.4963 73.1658 65.3423 74.8435 67.2902C75.954 68.5487 76.8849 69.9484 77.9377 71.2536C80.0927 74.0374 82.6234 76.6544 85.8147 78.2337C89.0656 79.7837 92.7068 80.4574 96.2995 80.3016C100.448 80.1394 104.512 79.0779 108.391 77.6434C111.913 76.3308 115.317 74.7148 118.619 72.9228C124.798 69.6019 130.706 65.8052 136.493 61.8482C139.31 59.904 142.135 57.9699 144.911 55.9662C156.386 47.8092 167.655 39.3625 179.25 31.376C180.972 30.1798 182.699 28.9909 184.452 27.8424C184.516 27.8048 184.57 27.7544 184.615 27.6921C184.724 27.6462 184.824 27.5793 184.911 27.4931C184.955 27.4794 185.042 27.4528 185.086 27.44C185.306 27.1925 185.63 27.0541 185.908 26.8763C185.995 26.8112 186.084 26.747 186.179 26.6847C186.348 26.5426 186.535 26.4244 186.737 26.329C186.882 26.2154 187.048 26.1283 187.2 26.0201C187.242 26.0064 187.323 25.9798 187.364 25.967C187.472 25.7754 187.688 25.6975 187.83 25.5371C187.873 25.5261 187.96 25.5032 188.003 25.4912C188.134 25.3922 188.272 25.2978 188.38 25.1686C188.431 25.1622 188.532 25.1484 188.582 25.142C188.614 25.0962 188.677 25.0036 188.708 24.9569C188.851 24.9092 189.052 24.9092 189.102 24.7286C189.161 24.7204 189.28 24.7048 189.34 24.6965C189.338 24.658 189.336 24.582 189.335 24.5444C189.392 24.5343 189.507 24.5141 189.564 24.504C189.627 24.406 189.728 24.3528 189.829 24.296C189.921 24.23 190.021 24.1823 190.129 24.1365C190.162 24.0027 190.287 23.988 190.405 23.9614C190.448 23.8404 190.565 23.8074 190.677 23.7671C190.761 23.6992 190.848 23.6314 190.936 23.5618C191.024 23.4948 191.123 23.449 191.227 23.4013C191.288 23.2739 191.429 23.2602 191.552 23.2217C191.58 23.1804 191.636 23.0998 191.663 23.0585C191.724 23.0567 191.844 23.053 191.904 23.0512C191.903 23.0109 191.901 22.9293 191.899 22.889C191.961 22.8844 192.085 22.8734 192.147 22.8679C192.161 22.712 192.296 22.6955 192.423 22.6717C192.446 22.5296 192.574 22.5168 192.695 22.493C192.728 22.3591 192.876 22.3527 192.98 22.3023C193.128 22.0072 193.533 22.0686 193.682 21.7945C193.741 21.7863 193.86 21.7698 193.918 21.7615C193.917 21.7248 193.916 21.6515 193.914 21.6148C193.975 21.6066 194.097 21.5892 194.158 21.5809C194.272 21.3747 194.518 21.3124 194.707 21.195C194.795 21.13 194.889 21.0685 194.986 21.009C195.312 20.8596 195.565 20.5745 195.918 20.481C195.955 20.3765 196.03 20.3151 196.143 20.2958L196.135 20.228C196.275 20.1968 196.416 20.1519 196.538 20.0658C196.599 19.9988 196.662 19.9319 196.725 19.8641C196.807 19.8439 196.894 19.8238 196.984 19.8036C197.169 19.5983 197.464 19.5249 197.628 19.3013C197.691 19.2967 197.817 19.2875 197.879 19.283C197.875 19.2426 197.866 19.162 197.861 19.1216C198.038 19.0822 198.216 19.0391 198.399 18.9988C198.399 18.9713 198.4 18.9154 198.401 18.8879C198.598 18.7018 198.96 18.7422 199.082 18.4855C199.133 18.4782 199.233 18.4644 199.283 18.4571C199.322 18.2591 199.616 18.3425 199.633 18.1243C199.687 18.1179 199.795 18.1051 199.849 18.0996C199.859 17.908 200.059 17.9364 200.2 17.8989C200.273 17.8145 200.349 17.733 200.429 17.6523C200.652 17.5881 200.846 17.457 201.028 17.3131C201.159 17.0583 201.545 17.1619 201.653 16.9217C201.761 16.8897 201.898 16.8897 201.935 16.754C202.174 16.6816 202.421 16.5844 202.584 16.3837C202.761 16.3424 202.93 16.2664 203.052 16.1234C203.1 16.116 203.197 16.1014 203.246 16.0931C203.32 16.0079 203.406 15.93 203.518 15.8887C203.654 15.7219 203.972 15.7989 204.026 15.5596C204.091 15.5541 204.219 15.5422 204.283 15.5367L204.254 15.4276C204.311 15.4121 204.427 15.3809 204.485 15.3644L204.459 15.2727C204.606 15.2489 204.761 15.2187 204.863 15.094C204.967 15.0564 205.091 15.0326 205.148 14.9171C205.442 14.808 205.747 14.6843 205.979 14.4634C206.036 14.4579 206.149 14.4469 206.207 14.4414C206.206 14.4047 206.203 14.3304 206.203 14.2938C206.262 14.2837 206.381 14.2645 206.441 14.2553C206.56 14.17 206.688 14.094 206.802 13.995C206.919 13.9418 207.1 13.9555 207.15 13.8061C207.285 13.7658 207.443 13.7466 207.524 13.61C207.584 13.5999 207.704 13.5788 207.765 13.5678C207.763 13.5357 207.758 13.4707 207.756 13.4386C208.016 13.401 208.291 13.2937 208.451 13.0738C208.512 13.0683 208.633 13.0573 208.695 13.0518C208.694 13.0142 208.691 12.939 208.689 12.9014C209.005 12.9198 209.223 12.6796 209.509 12.5944L209.494 12.5119C209.621 12.4835 209.75 12.4523 209.882 12.422L209.858 12.3322C210.003 12.3065 210.154 12.2735 210.266 12.1636C210.482 12.0398 210.725 11.9573 210.919 11.7942C211.038 11.7502 211.16 11.7089 211.287 11.6658C211.369 11.5659 211.493 11.5274 211.616 11.4926L211.603 11.4128C211.728 11.3835 211.856 11.3523 211.987 11.3221L211.978 11.2433C212.12 11.2075 212.271 11.1718 212.371 11.0499C212.497 11.0114 212.625 10.9747 212.758 10.9371C212.796 10.7859 212.943 10.785 213.074 10.7611L213.057 10.6695C213.157 10.6438 213.259 10.619 213.364 10.5934L213.35 10.51C213.516 10.4742 213.68 10.4302 213.848 10.3816C213.906 10.2487 214.045 10.2368 214.173 10.2084L214.163 10.1204C214.288 10.0938 214.416 10.0645 214.547 10.037L214.53 9.95082C214.783 9.88483 215.054 9.81241 215.229 9.60067C215.486 9.55484 215.721 9.43843 215.94 9.29452L215.924 9.22853C216.075 9.19644 216.23 9.16253 216.386 9.12861L216.378 9.04612C216.656 8.98929 216.892 8.82338 217.16 8.7308C217.268 8.64555 217.399 8.59239 217.535 8.55298C217.772 8.39348 218.045 8.29907 218.311 8.19458L218.292 8.11391C218.432 8.0745 218.658 8.135 218.701 7.94525C218.862 7.90584 219.068 7.92326 219.163 7.75368C219.29 7.71976 219.42 7.68768 219.552 7.65377C219.664 7.52636 219.835 7.50436 219.992 7.45394C220.09 7.33845 220.24 7.30912 220.381 7.26512C220.506 7.15604 220.664 7.10746 220.832 7.09646C221.017 6.86822 221.344 6.82698 221.61 6.73806L221.596 6.65465C221.749 6.62257 221.904 6.58957 222.063 6.55657L222.046 6.45941C222.201 6.43099 222.358 6.40075 222.518 6.37233L222.505 6.28067C222.652 6.25225 222.823 6.24675 222.924 6.10926C223.223 6.0506 223.488 5.88927 223.783 5.80861C223.906 5.69953 224.062 5.65828 224.222 5.61795C224.333 5.53912 224.459 5.48504 224.591 5.43829C224.765 5.32646 224.973 5.29988 225.176 5.27147L225.17 5.18714C225.309 5.15506 225.449 5.11931 225.594 5.08264C225.714 4.93598 225.912 4.93415 226.086 4.89657L226.07 4.81682C226.382 4.73616 226.673 4.58858 226.991 4.51709C227.145 4.40342 227.332 4.36584 227.521 4.33559C227.644 4.27051 227.784 4.21827 227.87 4.09727C228.07 4.06519 228.272 4.03128 228.476 3.99369L228.469 3.9057C228.8 3.8782 229.077 3.66738 229.407 3.62521L229.376 3.5253C229.533 3.51797 229.69 3.50972 229.854 3.50238C229.852 3.46389 229.848 3.38872 229.846 3.35023C230.034 3.34198 230.223 3.33281 230.417 3.32639C230.41 3.28423 230.395 3.1999 230.388 3.15865Z" fill="#FFBC00"/>
<path d="M246.164 5.74265C246.682 5.71057 247.15 5.44292 247.676 5.43558C247.668 5.65832 247.443 5.69407 247.289 5.78023C247.132 5.86273 246.958 5.90031 246.788 5.92139C246.794 5.94889 246.808 6.00481 246.815 6.03322C246.682 6.05614 246.553 6.07905 246.426 6.10105L246.432 6.19088C246.299 6.21746 246.171 6.24679 246.046 6.27521L246.065 6.35679C245.921 6.39529 245.711 6.36412 245.661 6.53828C245.456 6.57586 245.253 6.61528 245.053 6.65377L245.076 6.7271C244.925 6.77569 244.784 6.83252 244.658 6.9196C244.543 6.93701 244.432 6.95259 244.325 6.96818C244.327 7.00209 244.331 7.06992 244.333 7.10475C244.144 7.11575 243.942 7.11117 243.827 7.28258C243.668 7.32108 243.512 7.35774 243.359 7.39532C243.291 7.56123 243.111 7.53923 242.971 7.56306C242.884 7.74639 242.647 7.70972 242.485 7.75464L242.512 7.84997C242.375 7.87655 242.243 7.90313 242.113 7.92788L242.128 8.02229C241.923 8.07087 241.718 8.10846 241.511 8.11029C241.586 8.1387 241.663 8.1662 241.743 8.19462C241.601 8.23862 241.382 8.18545 241.354 8.37611C241.02 8.40727 240.747 8.61993 240.423 8.68318C240.327 8.80417 240.17 8.81334 240.035 8.8445C239.951 9.00675 239.743 8.99483 239.596 9.04616C239.534 9.22307 239.322 9.17449 239.18 9.21299L239.198 9.30098C239.071 9.33398 238.91 9.3184 238.866 9.46597C238.712 9.52097 238.457 9.46139 238.434 9.67496C238.311 9.68046 238.192 9.68688 238.075 9.69238C238.078 9.72996 238.084 9.80421 238.085 9.84179C237.711 9.81887 237.429 10.0929 237.073 10.1351L237.092 10.2359C236.957 10.2589 236.822 10.2818 236.693 10.3047L236.722 10.3982C236.59 10.4238 236.458 10.4523 236.333 10.4798L236.348 10.5788C236.197 10.6154 235.992 10.576 235.938 10.7575C235.777 10.8061 235.514 10.7355 235.498 10.9619C235.431 10.9619 235.296 10.9628 235.229 10.9637C235.231 11.0041 235.238 11.0856 235.24 11.126C235.083 11.1361 234.923 11.1471 234.772 11.159C234.776 11.1975 234.784 11.2763 234.788 11.3157C234.714 11.3176 234.566 11.3221 234.492 11.324C234.496 11.3643 234.501 11.444 234.505 11.4835C234.311 11.522 234.026 11.4495 233.927 11.6613C233.778 11.698 233.634 11.7346 233.491 11.7713L233.514 11.8657C233.368 11.8959 233.223 11.9308 233.085 11.9693C232.988 12.1113 232.823 12.1288 232.671 12.1398C232.671 12.1645 232.672 12.2158 232.673 12.2406C232.526 12.2745 232.336 12.2424 232.276 12.4138C232.159 12.4441 232.042 12.4716 231.932 12.4991L231.947 12.6008C231.835 12.6109 231.725 12.621 231.619 12.6329C231.553 12.896 231.175 12.7429 231.088 12.9785C231.037 12.9794 230.934 12.9821 230.883 12.9831C230.853 13.0261 230.795 13.1114 230.766 13.1535C230.635 13.1673 230.509 13.181 230.385 13.1948C230.385 13.2287 230.384 13.2975 230.383 13.3314C230.314 13.336 230.174 13.3442 230.103 13.3488C230.104 13.3873 230.106 13.4625 230.107 13.5C229.914 13.5184 229.726 13.5504 229.544 13.5954L229.564 13.687C229.286 13.7649 229.015 13.8758 228.787 14.0518C228.655 14.1032 228.49 14.1087 228.424 14.2517C228.363 14.2599 228.241 14.2746 228.18 14.2828C228.184 14.3186 228.189 14.3892 228.192 14.4249C228.015 14.4579 227.756 14.3846 227.693 14.6064C227.536 14.6449 227.38 14.6843 227.229 14.7246C227.151 14.864 226.994 14.8841 226.858 14.9061C226.622 15.0995 226.337 15.2169 226.048 15.2939C225.98 15.3782 225.895 15.4304 225.792 15.4524L225.814 15.5258C225.503 15.5734 225.253 15.7943 224.939 15.8292C224.877 16.0052 224.678 15.9822 224.533 16.0152C224.534 16.0473 224.537 16.1124 224.538 16.1445C224.473 16.1546 224.343 16.1757 224.278 16.1857C224.164 16.3131 224.003 16.3553 223.842 16.3746C223.798 16.5295 223.628 16.5121 223.511 16.5496L223.529 16.6386C223.4 16.6706 223.273 16.7036 223.151 16.7366L223.163 16.821C223.034 16.8494 222.862 16.8255 222.846 16.9969C222.711 17.0281 222.581 17.0602 222.452 17.095C222.367 17.2683 222.159 17.2509 222.002 17.293C221.957 17.4617 221.778 17.4507 221.644 17.4864C221.599 17.6138 221.472 17.6313 221.363 17.6587C221.29 17.8127 221.12 17.8091 220.98 17.8357C220.94 17.9704 220.798 17.986 220.69 18.0318C220.565 18.0969 220.435 18.1546 220.308 18.2087L220.322 18.294C220.249 18.2995 220.102 18.3123 220.03 18.3178C220.031 18.3526 220.032 18.4205 220.032 18.4544C219.882 18.4846 219.696 18.47 219.628 18.6359C219.487 18.6707 219.341 18.6991 219.261 18.8274C219.198 18.8339 219.073 18.8467 219.011 18.8531C219.017 18.8944 219.03 18.9769 219.037 19.019C218.877 19.0309 218.719 19.0438 218.566 19.0566C218.567 19.0887 218.569 19.1528 218.57 19.1849C218.418 19.2088 218.276 19.2564 218.166 19.3628C218.054 19.4049 217.928 19.4269 217.888 19.5516C217.749 19.5882 217.585 19.5818 217.517 19.7276C217.386 19.7798 217.244 19.8082 217.155 19.921C217.021 19.9613 216.879 19.9879 216.791 20.1034C216.666 20.151 216.543 20.2005 216.44 20.2812C216.225 20.4068 216.011 20.5434 215.766 20.6002C215.735 20.7579 215.572 20.7377 215.453 20.7643L215.464 20.8403C215.22 20.9338 214.992 21.0585 214.771 21.1914C214.671 21.2473 214.562 21.2895 214.496 21.3839C214.258 21.4655 214.008 21.559 213.856 21.7698C213.746 21.7781 213.641 21.7854 213.538 21.7927C213.54 21.8331 213.544 21.9146 213.547 21.955C213.397 21.9916 213.201 21.9687 213.134 22.1383C213.018 22.1722 212.906 22.2043 212.796 22.2364L212.808 22.3097C212.688 22.3528 212.562 22.3876 212.486 22.4939C212.385 22.5315 212.286 22.5673 212.193 22.6067C211.884 22.8258 211.55 23.0219 211.201 23.1704C211.129 23.2437 211.05 23.3033 210.962 23.3491L210.965 23.4133C210.824 23.4527 210.611 23.4096 210.587 23.5985C210.369 23.658 210.185 23.79 209.99 23.8945C209.863 23.9642 209.743 24.043 209.638 24.1384C209.509 24.1778 209.384 24.2163 209.261 24.2557C209.22 24.3785 209.106 24.4179 208.999 24.4518C208.898 24.5536 208.765 24.6068 208.632 24.6333C208.573 24.703 208.511 24.7672 208.444 24.8258C208.333 24.9056 208.205 24.9532 208.081 24.9963C208.009 25.0962 207.9 25.1384 207.793 25.1751C207.729 25.3208 207.559 25.3153 207.435 25.3602C207.376 25.4491 207.295 25.5105 207.192 25.5426L207.211 25.6059C207.095 25.6416 206.982 25.6792 206.872 25.715C206.755 25.7984 206.64 25.8827 206.529 25.9698C206.353 26.0486 206.186 26.1448 206.012 26.2209C206.012 26.2484 206.01 26.3034 206.01 26.33C205.735 26.341 205.569 26.5628 205.33 26.6517C205.19 26.8415 204.946 26.902 204.776 27.056C204.678 27.1119 204.551 27.1366 204.506 27.2503C204.39 27.2796 204.266 27.2943 204.235 27.4235C203.985 27.4813 203.78 27.6279 203.6 27.8021C203.373 27.8534 203.206 28.012 203.041 28.1623C202.93 28.1981 202.814 28.2283 202.766 28.3457C202.634 28.386 202.499 28.4254 202.41 28.5336C202.309 28.5867 202.212 28.6399 202.122 28.7022C202.029 28.7655 201.937 28.8269 201.849 28.8901C201.75 28.946 201.628 28.9772 201.576 29.0872C201.459 29.1138 201.34 29.133 201.312 29.2641C201.2 29.3054 201.079 29.3338 201.031 29.4539C200.898 29.4942 200.765 29.5354 200.676 29.6445C200.601 29.6812 200.531 29.7188 200.463 29.7554C200.375 29.8306 200.282 29.8938 200.185 29.9488C200.067 30.0231 199.956 30.1047 199.852 30.1917C199.777 30.2302 199.704 30.2697 199.635 30.31C199.527 30.3934 199.406 30.4566 199.28 30.4988C199.171 30.6207 199.037 30.7151 198.905 30.8059C198.861 30.8169 198.77 30.8389 198.725 30.8499C198.693 30.9865 198.563 31.0094 198.454 31.0442C198.336 31.2119 198.144 31.299 197.984 31.4154C197.84 31.5199 197.636 31.5557 197.559 31.7298C197.518 31.7335 197.436 31.7399 197.395 31.7427L197.409 31.8426C197.323 31.8756 197.239 31.9077 197.158 31.9407C197.049 32.0323 196.941 32.1258 196.824 32.2019C196.727 32.2596 196.634 32.3229 196.547 32.3898C196.476 32.4283 196.408 32.4668 196.342 32.5071C196.253 32.5759 196.16 32.6373 196.069 32.6969C195.954 32.7784 195.841 32.8609 195.723 32.9315C195.647 32.981 195.58 33.0397 195.523 33.1066C195.327 33.2074 195.107 33.2899 194.984 33.4815C194.878 33.5282 194.775 33.5787 194.709 33.6749C194.601 33.7125 194.476 33.7281 194.457 33.8582C194.342 33.8876 194.231 33.9261 194.156 34.0205C194.088 34.0801 194.024 34.1424 193.964 34.2084C193.844 34.2386 193.724 34.2689 193.698 34.4082C193.647 34.4183 193.545 34.4385 193.494 34.4485C193.459 34.5695 193.347 34.6108 193.245 34.6502C193.109 34.7382 192.963 34.8234 192.882 34.9673C192.839 34.9673 192.752 34.9673 192.709 34.9673C192.712 35.0086 192.72 35.0911 192.723 35.1333C192.572 35.1708 192.365 35.1369 192.323 35.3303C192.283 35.3358 192.203 35.3468 192.163 35.3532C192.168 35.3936 192.179 35.4752 192.185 35.5155C192.111 35.5201 191.967 35.5283 191.894 35.532C191.898 35.5742 191.904 35.6585 191.908 35.7006C191.837 35.7034 191.694 35.7107 191.622 35.7144C191.623 35.7556 191.624 35.8391 191.625 35.8803C191.568 35.8876 191.454 35.9014 191.397 35.9087C191.337 35.9839 191.279 36.059 191.224 36.1342C191.178 36.1425 191.083 36.1599 191.037 36.1681C190.909 36.3285 190.727 36.4248 190.565 36.5412C190.461 36.6631 190.306 36.6943 190.161 36.7172C190.163 36.7502 190.166 36.8153 190.168 36.8473C189.738 37.0426 189.406 37.4001 189 37.6375C188.907 37.7154 188.812 37.7915 188.756 37.8996C188.695 37.9051 188.573 37.917 188.511 37.9235C188.513 37.9592 188.518 38.0316 188.52 38.0674C188.393 38.0958 188.24 38.0949 188.208 38.2479C188.1 38.2883 187.991 38.3268 187.931 38.4294C187.838 38.4918 187.747 38.5532 187.66 38.6173C187.573 38.6806 187.49 38.7466 187.406 38.808C181.89 42.7394 176.426 46.746 171.023 50.8323C164.896 55.4594 158.797 60.1231 152.652 64.7246C150.04 66.6981 147.392 68.6221 144.759 70.5672C141.973 72.5911 139.185 74.615 136.335 76.55C133.366 78.5729 130.387 80.584 127.325 82.4658C122.486 85.4843 117.438 88.1764 112.196 90.4285C108.889 91.7769 105.502 92.9685 102.003 93.711C99.7922 94.1803 97.5465 94.4791 95.2906 94.601C92.9661 94.7156 90.6241 94.6734 88.3243 94.2939C84.7555 93.7605 81.2747 92.6156 78.1053 90.8859C75.0753 89.2287 72.3402 87.048 69.9873 84.5246C69.0646 83.5447 68.251 82.4723 67.3906 81.4401C66.6118 80.5079 65.921 79.5024 65.0817 78.6215C63.8081 77.1797 62.4694 75.791 61.0172 74.5279C59.2598 72.9064 57.3796 71.4187 55.4161 70.0548C50.0312 66.3672 44.0902 63.533 37.9229 61.4229C37.3997 61.2726 36.8967 61.0453 36.3552 60.9683C36.1967 60.8271 35.9823 60.8253 35.7835 60.8106C35.7844 60.7859 35.7862 60.7345 35.7871 60.7098C35.5865 60.6777 35.3867 60.6484 35.187 60.6172C35.1659 60.5906 35.1228 60.5375 35.1018 60.5109C34.695 60.4082 34.2991 60.2524 33.874 60.2432C33.8731 60.2102 33.8703 60.1433 33.8694 60.1103C33.6779 60.1012 33.4882 60.0929 33.2977 60.0874C33.3004 60.0581 33.3068 59.9994 33.3105 59.9701C33.1511 59.9481 32.9935 59.9288 32.834 59.9105L32.8496 59.8133C32.6031 59.784 32.3585 59.7446 32.1129 59.7107L32.1276 59.6144C31.8775 59.5842 31.6273 59.5539 31.3772 59.5347L31.3928 59.4357C31.1738 59.4036 30.9557 59.3706 30.7367 59.3449L30.7578 59.2487C30.4536 59.201 30.1485 59.1644 29.8415 59.1497C29.8415 59.1158 29.8397 59.0489 29.8397 59.015C29.6528 59.0012 29.4677 58.9875 29.2817 58.9755L29.2936 58.8793C29.1131 58.8509 28.8978 58.8784 28.7649 58.728C28.4479 58.6859 28.1318 58.6401 27.8148 58.6034L27.8313 58.5126C27.6205 58.4888 27.4107 58.4631 27.2027 58.4265C26.9049 58.1817 26.4322 58.3871 26.1463 58.1423C25.9401 58.0956 25.7285 58.0754 25.5177 58.0644L25.5278 57.9691C25.2529 57.9388 24.9781 57.9003 24.7032 57.8701L24.7105 57.7803C24.4961 57.7647 24.2835 57.7445 24.0719 57.7115C23.7448 57.4759 23.2637 57.662 22.9275 57.4292C22.659 57.3861 22.3887 57.354 22.1175 57.3357L22.1303 57.2422C21.7299 57.2413 21.3387 57.1441 20.9392 57.1423L20.9612 57.046C20.6762 56.9993 20.3885 56.9672 20.099 56.9727C20.1017 56.9461 20.1082 56.8921 20.1109 56.8646C19.8021 56.8435 19.4952 56.8041 19.1855 56.7857L19.1983 56.6913C18.7393 56.6803 18.2857 56.5932 17.8258 56.5905L17.8468 56.4906C17.5536 56.4667 17.2394 56.486 16.9736 56.3384C16.6401 56.31 16.3084 56.2687 15.9749 56.2513L15.9667 56.1615C15.3885 56.1615 14.8186 56.0423 14.2414 56.0478L14.2569 55.9424C13.7613 55.9443 13.272 55.8279 12.7754 55.8645C12.7799 55.8361 12.79 55.7811 12.7946 55.7536C12.3007 55.738 11.8105 55.6647 11.3158 55.6775L11.3304 55.5694C10.865 55.5813 10.4059 55.4777 9.93955 55.5043L9.9368 55.4108C9.39071 55.4154 8.85012 55.3145 8.30403 55.3347C8.3022 55.3063 8.29762 55.2495 8.29578 55.221C7.34288 55.2595 6.39638 55.0955 5.44348 55.1386L5.45081 55.0267C4.60968 55.0469 3.77131 54.947 2.92927 54.9626C2.74785 54.9506 2.54169 54.9919 2.38685 54.8691C1.71248 54.8599 1.0372 54.8351 0.362837 54.8434C0.239143 54.8269 0.0513103 54.8801 0 54.7224C0.0641379 54.5473 0.268463 54.6069 0.413232 54.5776L0.399488 54.496C0.754995 54.4465 1.06561 54.243 1.42569 54.2173L1.41653 54.1275C1.57596 54.1037 1.73447 54.0771 1.8939 54.0524L1.87924 53.9561C2.06891 53.9295 2.25857 53.8965 2.44732 53.8635L2.43632 53.7737C2.83306 53.7755 3.15742 53.5088 3.55049 53.4905L3.52392 53.3933C3.68152 53.3814 3.8382 53.3676 3.99488 53.3566C3.99396 53.3227 3.99121 53.2558 3.98938 53.2228C4.2102 53.2109 4.42918 53.1797 4.64542 53.133L4.63167 53.0413C4.87632 53.0074 5.11912 52.9643 5.36376 52.9322L5.35094 52.8287C5.50853 52.8112 5.66704 52.7911 5.82556 52.7746C5.82556 52.748 5.82464 52.6958 5.82464 52.6701C6.04179 52.6426 6.25803 52.6087 6.47518 52.5775L6.45594 52.4813C6.63186 52.4593 6.8087 52.4336 6.98095 52.3878C7.25492 52.2191 7.59393 52.231 7.90271 52.1815L7.89721 52.1082C8.01632 52.1009 8.10337 52.0468 8.15834 51.9478C8.52301 51.9221 8.88127 51.8488 9.24502 51.8085C9.31741 51.6581 9.49608 51.682 9.63352 51.6444C9.90381 51.4904 10.2273 51.5069 10.5223 51.4391C10.7119 51.253 10.9923 51.3052 11.2333 51.286L11.2122 51.1824C11.4056 51.1622 11.5989 51.1393 11.7931 51.1182L11.7794 51.0257C12.0735 50.9963 12.3667 50.9551 12.659 50.9129C12.8807 50.7076 13.2317 50.7873 13.5102 50.7259L13.5029 50.6343C13.7512 50.5793 14.0572 50.6462 14.2551 50.4583C14.5584 50.3785 14.9167 50.45 15.1851 50.2694C15.3629 50.2383 15.5425 50.2172 15.723 50.2025C15.7184 50.176 15.7101 50.1228 15.7055 50.0962C15.9933 50.0889 16.2782 50.0522 16.5632 50.0137L16.5375 49.9202C16.7776 49.9129 17.0204 49.9037 17.2522 49.8331C17.3365 49.7259 17.4794 49.7497 17.5976 49.7314C17.9046 49.7057 18.2088 49.6544 18.5157 49.6287C18.7292 49.3647 19.1003 49.5536 19.3898 49.5261L19.3935 49.6205C19.8443 49.6352 20.2887 49.7323 20.7413 49.7396C20.7404 49.7662 20.7395 49.8212 20.7385 49.8487C20.9878 49.879 21.2388 49.901 21.4899 49.9101L21.4798 50.0073C21.7024 50.0275 21.9251 50.055 22.1487 50.0806L22.1276 50.1741C22.4364 50.1897 22.7433 50.2319 23.0512 50.2704L23.0365 50.3703C23.2592 50.3749 23.4809 50.3831 23.7035 50.3932C23.7026 50.4271 23.7017 50.4931 23.7017 50.527C24.093 50.5628 24.4814 50.6324 24.8754 50.6471L24.8617 50.7433C25.1338 50.7883 25.4069 50.8268 25.6817 50.8469C25.6827 50.8726 25.6827 50.9248 25.6827 50.9505C25.8164 50.9661 25.9511 50.9798 26.0858 50.9936L26.073 51.088C26.4083 51.1137 26.74 51.1677 27.0745 51.2026L27.0543 51.2997C27.276 51.3245 27.4968 51.3538 27.7186 51.3786L27.7039 51.4766C27.9797 51.5161 28.2564 51.5527 28.535 51.5747C28.5322 51.6086 28.5276 51.6783 28.5249 51.7131C28.7723 51.7269 29.0197 51.7406 29.268 51.7516C29.2661 51.7883 29.2625 51.8616 29.2606 51.8992C29.4485 51.9084 29.6372 51.9194 29.826 51.9285L29.8021 52.0394C29.8791 52.0404 30.034 52.0422 30.1109 52.0422C30.11 52.0779 30.1091 52.1476 30.1082 52.1824C30.4719 52.1925 30.8256 52.2851 31.1875 52.3099L31.1729 52.4125C31.3644 52.4473 31.5586 52.4693 31.7538 52.4803L31.7327 52.5803C31.948 52.6142 32.1643 52.6481 32.3814 52.6756L32.3631 52.7755C32.4978 52.7947 32.6315 52.8158 32.7662 52.8369L32.7571 52.9267C33.0466 52.9616 33.3343 53.0092 33.6239 53.0477C33.7026 53.298 34.0188 53.1806 34.2167 53.2237C34.2139 53.2604 34.2084 53.3328 34.2057 53.3695C34.3642 53.3759 34.5245 53.3851 34.6849 53.3915C34.6803 53.4208 34.6702 53.4804 34.6656 53.5097C34.8819 53.5381 35.099 53.5665 35.3162 53.5913C35.3143 53.6243 35.3098 53.6903 35.3079 53.7233C35.493 53.7379 35.6799 53.7544 35.8668 53.7691C35.865 53.8012 35.8632 53.8663 35.8613 53.8993C36.0272 53.9213 36.193 53.9479 36.358 53.9809C36.5989 54.1312 36.8756 54.2045 37.1441 54.2907C43.8053 56.5905 50.3281 59.4485 56.1775 63.4157C60.6699 66.4561 64.8132 70.0447 68.3106 74.1997C69.3551 75.3703 70.2448 76.6654 71.2096 77.8992C72.2615 79.2201 73.2932 80.5675 74.5173 81.7362C77.0727 84.1854 80.0964 86.1507 83.3848 87.4633C86.7859 88.7869 90.4491 89.4239 94.0977 89.3396C98.4334 89.3112 102.712 88.3735 106.828 87.0618C110.544 85.8839 114.099 84.2642 117.58 82.5245C120.85 80.881 124.027 79.0615 127.164 77.176C132.884 73.7203 138.416 69.9649 143.877 66.1142C146.771 64.0591 149.688 62.0343 152.546 59.9279C164.077 51.6004 175.386 42.9594 187.184 35.0077C187.255 34.9536 187.329 34.8977 187.401 34.8381C187.435 34.8069 187.504 34.7437 187.538 34.7125C187.657 34.6814 187.804 34.6731 187.827 34.52C187.866 34.5155 187.945 34.5072 187.985 34.5026C187.984 34.4641 187.982 34.3871 187.981 34.3486C188.128 34.311 188.34 34.3431 188.371 34.1406C188.413 34.1396 188.499 34.1378 188.542 34.1369C188.538 34.0984 188.53 34.0223 188.526 33.9838C188.676 33.949 188.83 33.9123 188.986 33.8766L188.974 33.7922C189.156 33.6914 189.358 33.5979 189.477 33.4173C189.538 33.4091 189.659 33.3935 189.719 33.3862C189.717 33.3458 189.714 33.2652 189.713 33.2258C189.764 33.2221 189.867 33.2157 189.919 33.212C189.913 33.1772 189.904 33.1075 189.9 33.0718C190.042 33.0415 190.185 33.0012 190.327 32.9535C190.43 32.8591 190.537 32.7693 190.646 32.6795C190.756 32.641 190.869 32.6006 190.984 32.563C190.984 32.5273 190.982 32.4576 190.981 32.4228C191.05 32.4164 191.191 32.4036 191.261 32.3971C191.258 32.3641 191.255 32.2972 191.252 32.2642C191.428 32.2358 191.571 32.1286 191.707 32.0177C191.917 31.8866 192.129 31.7555 192.332 31.6107C192.422 31.5557 192.538 31.5245 192.592 31.4191C192.781 31.3109 193.008 31.2202 193.13 31.0295C193.254 31.0204 193.395 31.0194 193.405 30.8554C193.513 30.8224 193.624 30.7903 193.739 30.76C193.816 30.6693 193.893 30.5767 193.967 30.4814C194.028 30.4759 194.151 30.4658 194.212 30.4612C194.211 30.4209 194.208 30.3402 194.207 30.2999C194.267 30.2972 194.387 30.2935 194.448 30.2917C194.479 30.2522 194.542 30.1725 194.573 30.1322C194.8 30.0561 194.979 29.8847 195.212 29.8196L195.198 29.727C195.249 29.7252 195.35 29.7215 195.401 29.7197C195.401 29.6812 195.402 29.6051 195.403 29.5666C195.47 29.5602 195.608 29.5492 195.676 29.5428C195.674 29.5052 195.67 29.43 195.667 29.3934C195.803 29.3484 196.029 29.3989 196.05 29.2045C196.169 29.1798 196.29 29.1422 196.346 29.0185C196.454 28.9827 196.567 28.9488 196.682 28.9158L196.672 28.8425C196.829 28.7096 197.079 28.6756 197.174 28.4767C197.306 28.4419 197.495 28.4703 197.53 28.2934C197.852 28.1559 198.145 27.9515 198.461 27.7957C198.553 27.6591 198.704 27.627 198.862 27.6206C198.862 27.5839 198.862 27.5125 198.863 27.4767C198.913 27.474 199.012 27.4675 199.061 27.4648L199.053 27.3805C199.157 27.331 199.261 27.2723 199.36 27.2045C199.558 27.089 199.752 26.9597 199.973 26.8855L199.963 26.7929C200.014 26.7938 200.118 26.7947 200.17 26.7947C200.166 26.7535 200.158 26.671 200.154 26.6297C200.228 26.627 200.373 26.6215 200.447 26.6187C200.445 26.5793 200.441 26.4996 200.439 26.4592C200.586 26.4235 200.825 26.4867 200.835 26.2695C200.898 26.264 201.025 26.253 201.088 26.2475C201.087 26.2099 201.083 26.1348 201.082 26.0981C201.222 26.0614 201.432 26.1045 201.473 25.9184C201.903 25.7058 202.321 25.4702 202.744 25.242L202.718 25.1714C202.845 25.1494 203.011 25.1586 203.025 24.9844C203.164 24.9459 203.384 24.9844 203.38 24.7772C203.425 24.7818 203.516 24.7892 203.562 24.7937C203.56 24.7534 203.556 24.6727 203.555 24.6333C203.705 24.5976 203.858 24.5591 204.014 24.5224L204.003 24.4427C204.167 24.3199 204.398 24.2676 204.505 24.0779C204.63 24.0357 204.824 24.0669 204.856 23.8936C205.172 23.768 205.45 23.5591 205.762 23.4161L205.745 23.3226C205.796 23.3207 205.897 23.318 205.948 23.3161C205.945 23.2786 205.939 23.2034 205.936 23.1658C206.082 23.1328 206.307 23.1823 206.332 22.9742C206.465 22.9422 206.654 22.9687 206.699 22.7946C206.828 22.7598 206.957 22.7084 207.064 22.6204C207.165 22.5718 207.28 22.5324 207.352 22.4325C207.444 22.3931 207.538 22.3555 207.636 22.317C207.817 22.1291 208.127 22.1044 208.259 21.8679C208.321 21.8624 208.445 21.8532 208.506 21.8486C208.504 21.8074 208.5 21.7258 208.498 21.6846C208.57 21.6809 208.714 21.6726 208.785 21.6681C208.783 21.6286 208.778 21.5498 208.775 21.5104C208.942 21.4682 209.227 21.5562 209.247 21.3133C209.365 21.295 209.509 21.3014 209.545 21.1483C209.702 21.1117 209.872 21.0842 209.992 20.9604C210.178 20.8449 210.373 20.7395 210.583 20.6662C210.638 20.5049 210.833 20.5406 210.968 20.4929C210.968 20.4719 210.966 20.4297 210.965 20.4086C211.076 20.361 211.223 20.3509 211.289 20.2271C211.396 20.1914 211.501 20.1584 211.616 20.1263L211.611 20.0429C211.721 20.0026 211.896 20.0191 211.918 19.8568C212.058 19.8211 212.202 19.7862 212.349 19.7551L212.331 19.6561C212.483 19.6167 212.636 19.58 212.794 19.5488C212.793 19.5158 212.79 19.4489 212.789 19.415C212.896 19.4022 213.006 19.3884 213.12 19.3738C213.155 19.2592 213.235 19.1996 213.361 19.1968L213.338 19.1162C213.469 19.0878 213.602 19.0594 213.739 19.0309L213.707 18.942C213.859 18.9283 213.997 18.865 214.106 18.7532C214.171 18.7431 214.301 18.7211 214.366 18.711C214.365 18.6762 214.363 18.6084 214.362 18.5745C214.506 18.5396 214.739 18.6001 214.756 18.3902C214.884 18.3499 215.091 18.3966 215.137 18.2188C215.27 18.1821 215.449 18.1959 215.505 18.0318C215.637 17.9924 215.84 18.0263 215.861 17.8393C215.97 17.8247 216.083 17.81 216.199 17.7972C216.198 17.7623 216.196 17.6945 216.195 17.6606C216.332 17.6138 216.567 17.6725 216.587 17.4727C216.756 17.4571 216.937 17.4424 217.055 17.2967C217.163 17.2619 217.293 17.2435 217.338 17.1134C217.504 17.073 217.675 17.0345 217.848 17.0015L217.829 16.9135C217.967 16.8787 218.105 16.8411 218.249 16.8035C218.322 16.6422 218.506 16.6523 218.656 16.6175L218.647 16.5533C218.862 16.4076 219.102 16.3159 219.358 16.2618C219.428 16.1161 219.605 16.1298 219.737 16.0767C219.987 15.9007 220.315 15.8503 220.543 15.6449C220.662 15.5844 220.875 15.622 220.904 15.446C221.013 15.4359 221.126 15.4268 221.243 15.4176C221.24 15.38 221.234 15.3049 221.23 15.2664C221.354 15.2572 221.48 15.2471 221.609 15.2379C221.608 15.2004 221.604 15.1261 221.601 15.0885C221.755 15.0757 221.906 15.061 222.066 15.0473C222.062 15.0088 222.055 14.9327 222.051 14.8942C222.176 14.8878 222.304 14.8823 222.435 14.8768C222.433 14.8392 222.429 14.765 222.428 14.7283C222.791 14.7265 223.092 14.5303 223.423 14.4212L223.416 14.3461C223.686 14.2562 223.991 14.193 224.204 13.9895C224.33 13.9437 224.51 13.9666 224.579 13.8172C224.753 13.786 224.926 13.7283 225.076 13.6256C225.195 13.5871 225.366 13.5935 225.372 13.4221C225.52 13.4166 225.666 13.412 225.82 13.4075C225.818 13.3699 225.811 13.2947 225.808 13.258C225.966 13.2305 226.127 13.1994 226.291 13.1682L226.265 13.0701C226.565 13.0711 226.804 12.8621 227.098 12.8263C227.1 12.7988 227.103 12.7438 227.105 12.7163C227.247 12.6769 227.452 12.7108 227.51 12.533C227.648 12.5147 227.786 12.4972 227.932 12.4817C227.93 12.4477 227.923 12.379 227.921 12.3442C228.288 12.3488 228.6 12.1636 228.934 12.0472L228.928 11.972C229.063 11.9271 229.299 11.9876 229.328 11.785C229.467 11.7685 229.606 11.7529 229.755 11.7374C229.752 11.7035 229.748 11.6365 229.745 11.6026C229.92 11.577 230.164 11.6283 230.251 11.422C230.394 11.3918 230.544 11.3616 230.694 11.3341L230.665 11.2369C230.868 11.2167 231.092 11.2094 231.248 11.0526C231.368 10.994 231.58 11.0407 231.624 10.8721C231.778 10.8281 232.03 10.9069 232.079 10.6961C232.239 10.664 232.401 10.6301 232.565 10.5934C232.626 10.4248 232.832 10.4935 232.967 10.444C232.967 10.4156 232.968 10.3588 232.969 10.3294C233.178 10.2937 233.389 10.2524 233.602 10.2167L233.583 10.1232C233.728 10.0957 233.873 10.0645 234.024 10.0324C234.135 9.92154 234.28 9.87204 234.438 9.85279L234.425 9.77304C234.652 9.72813 234.882 9.68505 235.116 9.65297C235.149 9.44489 235.38 9.52006 235.533 9.49164L235.511 9.38806C235.729 9.30831 236.064 9.39356 236.192 9.15249C236.318 9.13782 236.453 9.12499 236.588 9.11216C236.601 8.89217 236.844 8.97008 236.997 8.93892L236.974 8.83167C237.155 8.79959 237.34 8.76842 237.527 8.74093L237.518 8.64376C237.676 8.61626 237.834 8.58968 237.998 8.56585L237.98 8.46686C238.139 8.44211 238.3 8.41552 238.465 8.39353C238.465 8.36694 238.467 8.3147 238.467 8.28903C238.618 8.2652 238.775 8.23953 238.933 8.2157L238.917 8.11671C239.07 8.10112 239.221 8.08554 239.381 8.06996C239.381 8.03788 239.382 7.97554 239.382 7.94438C239.589 7.91596 239.797 7.8848 240.009 7.85272C240.01 7.82614 240.012 7.77389 240.014 7.74731C240.196 7.71706 240.381 7.68406 240.568 7.65381L240.554 7.56673C240.717 7.54015 240.881 7.51082 241.049 7.4824L241.016 7.38524C241.245 7.35499 241.475 7.31924 241.707 7.27616C241.813 7.05159 242.09 7.12767 242.293 7.09192L242.29 7.00026C242.433 6.96818 242.578 6.93518 242.725 6.90035C242.896 6.77202 243.115 6.7656 243.322 6.7381L243.301 6.64552C243.515 6.61161 243.731 6.57678 243.95 6.54561L243.933 6.44937C244.089 6.42829 244.245 6.40445 244.407 6.38337C244.407 6.35587 244.407 6.30271 244.408 6.27613C244.593 6.25046 244.781 6.22113 244.972 6.19271L244.952 6.09647C245.377 6.11572 245.742 5.85723 246.161 5.84073C246.161 5.81598 246.163 5.7674 246.164 5.74265Z" fill="#FFBC00"/>
<path d="M203.417 6.92324C203.6 6.76008 203.877 6.37327 204.125 6.68675C203.946 6.79766 203.761 6.88932 203.568 6.96174C203.555 7.12765 203.39 7.12398 203.268 7.1469C203.269 7.18539 203.271 7.26147 203.273 7.29906C203.2 7.29997 203.054 7.29997 202.981 7.29997C202.986 7.33939 202.996 7.4173 203.001 7.45671C202.876 7.49063 202.734 7.49521 202.68 7.62904C202.579 7.68495 202.484 7.74087 202.398 7.80961C202.297 7.8637 202.193 7.91228 202.133 8.01127C202.052 8.04794 201.973 8.0846 201.897 8.12127C201.618 8.33667 201.301 8.49617 201.04 8.73265C200.941 8.78948 200.847 8.84815 200.758 8.9114C200.566 9.01956 200.381 9.13872 200.218 9.28538C200.043 9.37521 199.879 9.47787 199.723 9.59245C199.611 9.67586 199.499 9.75744 199.39 9.83719C199.3 9.89585 199.216 9.95451 199.134 10.015C198.965 10.1406 198.793 10.2616 198.593 10.3257L198.602 10.3881C198.324 10.5283 198.089 10.7401 197.815 10.8858C197.73 10.9775 197.613 11.0205 197.504 11.0627L197.502 11.115C197.399 11.1525 197.324 11.2185 197.275 11.312C197.23 11.3212 197.138 11.3395 197.092 11.3487C196.969 11.4578 196.849 11.5687 196.733 11.6814C196.618 11.7172 196.504 11.7529 196.394 11.7887C196.396 11.829 196.4 11.9115 196.403 11.9528C196.343 11.9555 196.222 11.961 196.161 11.9647C196.088 12.0572 196.013 12.1452 195.935 12.2305C195.823 12.2727 195.718 12.3231 195.63 12.3991C195.539 12.4633 195.45 12.5247 195.362 12.5834C195.08 12.7603 194.81 12.9537 194.537 13.1425C194.46 13.1819 194.386 13.2223 194.314 13.2626C194.225 13.3259 194.138 13.39 194.056 13.4551C193.969 13.5321 193.882 13.6082 193.799 13.6843C193.592 13.7704 193.416 13.907 193.252 14.0546C193.15 14.1041 193.052 14.1554 192.976 14.2361C192.89 14.2993 192.807 14.3626 192.726 14.4267C192.644 14.4615 192.564 14.4964 192.488 14.5312C192.401 14.6687 192.242 14.699 192.099 14.732C192.1 14.7705 192.103 14.8484 192.105 14.8869C192.056 14.8878 191.959 14.8887 191.911 14.8896C191.912 14.9336 191.912 15.0198 191.912 15.0638C191.85 15.0665 191.727 15.0739 191.665 15.0775C191.65 15.2462 191.487 15.2462 191.361 15.2764C191.362 15.3122 191.365 15.3818 191.366 15.4167C191.296 15.424 191.156 15.4396 191.085 15.4469C191.087 15.4863 191.09 15.5652 191.091 15.6055C191.033 15.6137 190.918 15.6321 190.862 15.6412C190.73 15.8301 190.527 15.9419 190.346 16.0721C190.293 16.095 190.186 16.1399 190.132 16.1628C190.053 16.2655 189.958 16.3544 189.859 16.436C189.71 16.4891 189.58 16.5744 189.472 16.6862C189.426 16.6999 189.334 16.7274 189.288 16.7412C189.258 16.8714 189.132 16.8961 189.027 16.9346C188.969 17.0061 188.907 17.0712 188.841 17.1317C188.692 17.2362 188.458 17.2499 188.399 17.447C188.36 17.4488 188.283 17.4525 188.245 17.4543L188.25 17.5377C188.068 17.634 187.906 17.7596 187.753 17.8943C187.657 17.9566 187.563 18.019 187.471 18.0813C187.372 18.14 187.276 18.1986 187.187 18.2674C187.124 18.3251 187.063 18.3838 187.005 18.4424C186.892 18.4819 186.771 18.5121 186.737 18.6423C186.693 18.6533 186.603 18.6743 186.559 18.6844C186.301 18.9301 185.981 19.0905 185.709 19.3142C185.606 19.4021 185.481 19.4553 185.36 19.5039C185.195 19.7578 184.873 19.832 184.709 20.0869C184.594 20.1244 184.474 20.1556 184.441 20.2867C184.397 20.2986 184.309 20.3234 184.264 20.3362C184.176 20.437 184.058 20.5048 183.932 20.536C183.932 20.5644 183.931 20.6213 183.931 20.6497C183.694 20.6955 183.494 20.8293 183.344 21.0127C183.235 21.0539 183.128 21.0988 183.07 21.2033C182.989 21.2436 182.911 21.2831 182.835 21.3225C182.806 21.3564 182.748 21.4233 182.72 21.4572C182.581 21.5278 182.449 21.6094 182.326 21.6992C182.164 21.855 181.98 21.9889 181.768 22.0622C181.753 22.2116 181.625 22.2308 181.506 22.2483C181.309 22.4866 181.047 22.6598 180.775 22.7992C180.7 22.8881 180.597 22.9376 180.5 22.988C180.37 23.0897 180.228 23.1777 180.136 23.3152C180.088 23.3189 179.994 23.3262 179.946 23.3299C179.918 23.4885 179.766 23.5068 179.646 23.5471C179.644 23.5829 179.64 23.6534 179.638 23.6892C179.6 23.691 179.525 23.6956 179.486 23.6974C179.462 23.8395 179.335 23.8679 179.219 23.8964C179.105 24.0659 178.914 24.153 178.752 24.2658C178.664 24.3345 178.571 24.3922 178.48 24.4491C178.401 24.5508 178.279 24.5902 178.167 24.6315C178.092 24.7103 178.018 24.7891 177.948 24.8698C177.76 24.9514 177.559 25.0449 177.485 25.2511C177.424 25.2548 177.302 25.264 177.241 25.2676C177.242 25.3061 177.246 25.3813 177.249 25.4189C176.991 25.4354 176.863 25.6966 176.614 25.7314C176.613 25.7681 176.612 25.8405 176.611 25.8772C176.544 25.8827 176.41 25.8928 176.343 25.8983C176.341 25.9377 176.337 26.0156 176.334 26.055C176.286 26.0568 176.189 26.0605 176.14 26.0623L176.161 26.1852C176.119 26.1879 176.036 26.1916 175.994 26.1943C175.961 26.3089 175.885 26.3749 175.764 26.3905C175.766 26.4253 175.77 26.495 175.772 26.5289C175.703 26.5326 175.567 26.539 175.498 26.5417C175.496 26.5784 175.491 26.6536 175.489 26.6902C175.295 26.715 175.172 26.8644 175.015 26.957C174.754 27.1311 174.484 27.2952 174.259 27.5133C174.219 27.5262 174.139 27.5518 174.099 27.5656C174.05 27.6133 173.953 27.7095 173.904 27.7572C168.362 31.7885 162.952 35.9958 157.479 40.1187C148.872 46.6653 140.249 53.1962 131.376 59.3779C125.637 63.4193 119.722 67.2416 113.454 70.4186C110.429 71.9182 107.319 73.2684 104.089 74.2602C101.919 74.9257 99.6804 75.3812 97.4163 75.5481C95.549 75.6351 93.6569 75.6351 91.8253 75.219C89.8279 74.7992 87.8882 74.0384 86.1959 72.8889C83.4315 71.0914 81.3791 68.4607 79.3157 65.94C77.7865 64.0582 76.0923 62.3184 74.3413 60.6438C72.5464 58.9783 70.7212 57.3366 68.7568 55.8709C66.2737 53.9506 63.6963 52.1503 61.0171 50.5123C58.054 48.7268 54.9653 47.1016 51.6649 46.031C51.0547 45.8201 50.417 45.6973 49.8141 45.4663C53.6349 45.2207 57.4648 45.0291 61.2948 45.1528C61.5999 45.1483 61.8537 45.3352 62.1047 45.4837C67.6234 48.7185 72.7278 52.6618 77.2486 57.1899C79.8554 59.8426 82.3128 62.6365 84.7711 65.4258C85.8303 66.5652 86.8171 67.7834 88.0293 68.7696C89.3166 69.8439 90.8101 70.6872 92.4273 71.1483C94.5769 71.7688 96.8473 71.6781 99.0463 71.4251C102.941 70.9365 106.682 69.6285 110.258 68.0455C116.924 65.0711 123.189 61.2817 129.28 57.2779C130.635 56.3741 131.984 55.4612 133.341 54.5611C136.248 52.5573 139.136 50.527 142.018 48.4866C147.759 44.3682 153.493 40.2379 159.209 36.0829C163.053 33.2982 166.913 30.5318 170.786 27.7865L170.67 27.7645L170.612 27.7535C170.764 27.7013 171.02 27.7746 171.059 27.5518C171.102 27.5482 171.184 27.5399 171.225 27.5363C171.221 27.4987 171.211 27.4244 171.205 27.3878C171.41 27.3768 171.593 27.2906 171.714 27.1192C171.77 27.1091 171.88 27.0899 171.936 27.0798C171.934 27.0413 171.928 26.9643 171.925 26.9258C171.987 26.9185 172.109 26.902 172.17 26.8937C172.188 26.7489 172.32 26.7251 172.443 26.6921C172.493 26.6123 172.545 26.5326 172.598 26.4519C172.698 26.4152 172.799 26.3767 172.904 26.3382C172.941 26.2117 173.061 26.1824 173.173 26.1448C173.293 25.9808 173.505 25.9258 173.647 25.7809C173.739 25.7213 173.833 25.6627 173.929 25.6031C174.011 25.5215 174.106 25.4537 174.218 25.4134L174.223 25.3556C174.34 25.34 174.413 25.275 174.443 25.1613C174.504 25.1549 174.623 25.142 174.682 25.1356C174.683 25.1017 174.685 25.032 174.686 24.9981C174.798 24.9486 174.968 24.9578 175.003 24.8029C175.043 24.7974 175.123 24.7855 175.162 24.7791C175.157 24.7406 175.144 24.6636 175.138 24.6242C175.294 24.6086 175.503 24.6122 175.539 24.4097C175.58 24.4133 175.664 24.4188 175.705 24.4216C175.704 24.3822 175.702 24.3015 175.7 24.2621C175.838 24.2227 175.976 24.1814 176.118 24.1402C176.131 24.0008 176.253 23.9752 176.37 23.9422C176.431 23.878 176.495 23.8148 176.563 23.7534C176.704 23.6855 176.84 23.5975 176.937 23.4692C176.989 23.4536 177.09 23.4234 177.142 23.4078C177.222 23.3418 177.305 23.2758 177.393 23.2116C177.515 23.1081 177.638 23.0054 177.765 22.9036C177.808 22.8917 177.895 22.8688 177.938 22.8578C177.978 22.7322 178.095 22.7011 178.209 22.6644C178.268 22.5984 178.332 22.5361 178.401 22.4774C178.493 22.3986 178.607 22.3528 178.724 22.3124L178.714 22.2437C178.87 22.1859 179.028 22.119 179.14 21.987C179.182 21.9751 179.268 21.9522 179.31 21.9412C179.354 21.8596 179.417 21.7936 179.496 21.7432C179.588 21.6827 179.682 21.6231 179.78 21.5663C179.9 21.4893 180.01 21.3995 180.121 21.3069C180.162 21.3005 180.242 21.2876 180.283 21.2812C180.282 21.2473 180.279 21.1795 180.277 21.1456C180.419 21.1144 180.564 21.0704 180.671 20.9604C180.733 20.9146 180.797 20.8697 180.865 20.8238C180.948 20.7331 181.061 20.6854 181.177 20.6423L181.17 20.5589C181.223 20.5543 181.329 20.5452 181.381 20.5406C181.378 20.5012 181.373 20.4223 181.37 20.382C181.423 20.3875 181.53 20.3967 181.583 20.4022C181.579 20.3582 181.572 20.2693 181.568 20.2253C181.639 20.2179 181.78 20.2033 181.85 20.195C181.848 20.1565 181.846 20.0795 181.844 20.041C181.916 20.0355 182.061 20.0236 182.133 20.0181C182.13 19.9815 182.121 19.9072 182.117 19.8696C182.288 19.844 182.47 19.81 182.586 19.6652C182.653 19.6286 182.723 19.5919 182.794 19.5552C182.845 19.437 182.964 19.4095 183.076 19.3728C183.189 19.2821 183.303 19.1922 183.42 19.1042C183.461 19.0997 183.542 19.0923 183.582 19.0887C183.578 19.0483 183.571 18.9695 183.567 18.9292C183.623 18.9218 183.735 18.9072 183.791 18.8998C183.913 18.7605 184.077 18.6698 184.238 18.579C184.329 18.5194 184.423 18.4608 184.517 18.4003C184.691 18.2472 184.887 18.1216 185.118 18.0758C185.119 18.0419 185.119 17.9731 185.119 17.9392C185.158 17.9346 185.235 17.9255 185.273 17.9209C185.378 17.821 185.491 17.7256 185.61 17.6386C185.709 17.6092 185.811 17.5762 185.915 17.5414C185.96 17.4232 186.074 17.3883 186.185 17.348C186.317 17.1968 186.49 17.0886 186.665 16.9905C186.777 16.9117 186.889 16.8329 187.005 16.7549C187.099 16.6935 187.213 16.6477 187.278 16.545C187.321 16.5377 187.408 16.5221 187.451 16.5139C187.571 16.402 187.712 16.314 187.837 16.205C187.942 16.1628 188.066 16.1298 188.095 15.9969C188.137 15.9969 188.222 15.9951 188.264 15.9941C188.262 15.9538 188.258 15.8731 188.256 15.8328C188.428 15.7952 188.708 15.8621 188.728 15.6092C188.761 15.611 188.828 15.6147 188.861 15.6165C188.888 15.4194 189.128 15.4451 189.217 15.2911C189.34 15.2453 189.495 15.2306 189.567 15.0986C189.831 14.9831 190.066 14.819 190.309 14.6632C190.42 14.632 190.542 14.6009 190.562 14.4615C190.623 14.4551 190.746 14.4405 190.807 14.4331C190.807 14.3937 190.807 14.3131 190.807 14.2727C190.867 14.2672 190.989 14.2562 191.05 14.2507C191.069 14.0921 191.223 14.0876 191.35 14.0537L191.351 13.9913C191.552 13.8822 191.747 13.7603 191.935 13.6265C192.094 13.5165 192.257 13.4083 192.435 13.3231C192.547 13.2452 192.658 13.1627 192.767 13.0756C193.095 12.94 193.374 12.7145 193.674 12.5266C194.003 12.3808 194.299 12.1746 194.602 11.9793C194.681 11.917 194.767 11.8556 194.852 11.7933C194.955 11.7538 195.063 11.7153 195.173 11.6759C195.304 11.5247 195.476 11.4165 195.671 11.3643C195.671 11.3349 195.669 11.2772 195.669 11.2488C196.156 11.1562 196.517 10.7795 196.958 10.5796L196.957 10.5137C197.076 10.4807 197.2 10.4431 197.274 10.3294C197.403 10.2836 197.537 10.2405 197.675 10.2002V10.1507C197.755 10.0929 197.833 10.0324 197.912 9.96826C198.009 9.92335 198.109 9.88027 198.215 9.8381C198.366 9.73911 198.515 9.63461 198.66 9.52095C198.706 9.51362 198.798 9.49987 198.845 9.49345C198.925 9.37612 199.044 9.29638 199.161 9.21571C199.212 9.20288 199.315 9.17722 199.366 9.16438C199.484 9.06539 199.615 8.98564 199.756 8.91781C199.878 8.84907 199.991 8.7629 200.096 8.66482C200.223 8.62816 200.353 8.59333 200.487 8.55758C200.6 8.35684 200.846 8.30367 201.03 8.1836C201.132 8.08918 201.266 8.04885 201.398 8.00211C201.448 7.88386 201.57 7.85728 201.682 7.81328C201.89 7.68037 202.148 7.60246 202.298 7.39347C202.418 7.3348 202.601 7.34764 202.666 7.20098C202.79 7.15698 202.95 7.15331 203.037 7.0314C203.081 7.00482 203.169 6.95074 203.213 6.92416C203.264 6.92416 203.366 6.92324 203.417 6.92324Z" fill="#FFBC00"/>
</svg>
